{
  "accessors": [
    {
      "bufferView": 2,
      "componentType": 5126,
      "count": 2541,
      "max": [
        5.010244369506836,
        5.010244846343994,
        5.010244846343994
      ],
      "min": [
        -5.010244369506836,
        -5.010244369506836,
        -5.010244846343994
      ],
      "type": "VEC3"
    },
    {
      "bufferView": 2,
      "byteOffset": 30492,
      "componentType": 5126,
      "count": 2541,
      "type": "VEC3"
    },
    {
      "bufferView": 3,
      "componentType": 5126,
      "count": 2541,
      "type": "VEC4"
    },
    {
      "bufferView": 1,
      "componentType": 5126,
      "count": 2541,
      "type": "VEC2"
    },
    {
      "bufferView": 0,
      "componentType": 5125,
      "count": 14400,
      "type": "SCALAR"
    },
    {
      "bufferView": 2,
      "byteOffset": 60984,
      "componentType": 5126,
      "count": 258,
      "max": [
        12.907472610473633,
        12.907471656799316,
        2.527220885895076e-07
      ],
      "min": [
        -12.907472610473633,
        -12.907471656799316,
        -2.384185791015625e-07
      ],
      "type": "VEC3"
    },
    {
      "bufferView": 2,
      "byteOffset": 64080,
      "componentType": 5126,
      "count": 258,
      "type": "VEC3"
    },
    {
      "bufferView": 3,
      "byteOffset": 40656,
      "componentType": 5126,
      "count": 258,
      "type": "VEC4"
    },
    {
      "bufferView": 1,
      "byteOffset": 20328,
      "componentType": 5126,
      "count": 258,
      "type": "VEC2"
    },
    {
      "bufferView": 0,
      "byteOffset": 57600,
      "componentType": 5125,
      "count": 768,
      "type": "SCALAR"
    },
    {
      "bufferView": 5,
      "componentType": 5126,
      "count": 2382,
      "max": [
        58.95833206176758
      ],
      "min": [
        0.0
      ],
      "type": "SCALAR"
    },
    {
      "bufferView": 4,
      "componentType": 5126,
      "count": 2382,
      "type": "VEC4"
    }
  ],
  "animations": [
    {
      "channels": [
        {
          "sampler": 0,
          "target": {
            "node": 4,
            "path": "rotation"
          }
        }
      ],
      "name": "space_object_001_gas_giant|space_object_001_gas_giant_rotation",
      "samplers": [
        {
          "input": 10,
          "interpolation": "LINEAR",
          "output": 11
        }
      ]
    }
  ],
  "asset": {
    "generator": "fab-model-conversion",
    "version": "2.0"
  },
  "bufferViews": [
    {
      "buffer": 0,
      "byteLength": 60672,
      "target": 34963
    },
    {
      "buffer": 0,
      "byteLength": 22392,
      "byteOffset": 60672,
      "byteStride": 8,
      "target": 34962
    },
    {
      "buffer": 0,
      "byteLength": 67176,
      "byteOffset": 83064,
      "byteStride": 12,
      "target": 34962
    },
    {
      "buffer": 0,
      "byteLength": 44784,
      "byteOffset": 150240,
      "byteStride": 16,
      "target": 34962
    },
    {
      "buffer": 0,
      "byteLength": 38112,
      "byteOffset": 195024
    },
    {
      "buffer": 0,
      "byteLength": 9528,
      "byteOffset": 233136
    }
  ],
  "buffers": [
    {
      "byteLength": 242664,
      "uri": "scene.bin"
    }
  ],
  "images": [
    {
      "uri": "textures/space_object_001_gas_giant_baseColor.png"
    },
    {
      "uri": "textures/space_object_001_gas_giant_normal.png"
    },
    {
      "uri": "textures/space_object_001_rings_baseColor.png"
    },
    {
      "uri": "textures/space_object_001_rings_normal.png"
    }
  ],
  "materials": [
    {
      "doubleSided": true,
      "name": "space_object_001_gas_giant",
      "normalTexture": {
        "index": 1
      },
      "pbrMetallicRoughness": {
        "baseColorTexture": {
          "index": 0
        },
        "roughnessFactor": 0.8211145618000169
      }
    },
    {
      "doubleSided": true,
      "name": "space_object_001_rings",
      "normalTexture": {
        "index": 3
      },
      "pbrMetallicRoughness": {
        "baseColorTexture": {
          "index": 2
        },
        "roughnessFactor": 0.8040408205773457
      }
    }
  ],
  "meshes": [
    {
      "name": "space_object_001_gas_giant_space_object_001_gas_giant_0",
      "primitives": [
        {
          "attributes": {
            "NORMAL": 1,
            "POSITION": 0,
            "TANGENT": 2,
            "TEXCOORD_0": 3
          },
          "indices": 4,
          "material": 0,
          "mode": 4
        }
      ]
    },
    {
      "name": "space_object_001_gas_giant_space_object_001_rings_0",
      "primitives": [
        {
          "attributes": {
            "NORMAL": 6,
            "POSITION": 5,
            "TANGENT": 7,
            "TEXCOORD_0": 8
          },
          "indices": 9,
          "material": 1,
          "mode": 4
        }
      ]
    }
  ],
  "nodes": [
    {
      "children": [
        1
      ],
      "matrix": [
        1.0,
        0.0,
        0.0,
        0.0,
        0.0,
        2.220446049250313e-16,
        -1.0,
        0.0,
        0.0,
        1.0,
        2.220446049250313e-16,
        0.0,
        0.0,
        0.0,
        0.0,
        1.0
      ],
      "name": "Sketchfab_model"
    },
    {
      "children": [
        2
      ],
      "matrix": [
        1.0,
        0.0,
        0.0,
        0.0,
        0.0,
        0.0,
        1.0,
        0.0,
        0.0,
        -1.0,
        0.0,
        0.0,
        0.0,
        0.0,
        0.0,
        1.0
      ],
      "name": "2a1ca2cf339e45a79c201e276f85c574.fbx"
    },
    {
      "children": [
        3
      ],
      "name": "Object_2"
    },
    {
      "children": [
        4
      ],
      "name": "RootNode",
      "rotation": [
        0.0,
        0.0,
        0.0,
        1.0
      ],
      "scale": [
        1.0,
        1.0,
        1.0
      ],
      "translation": [
        0.0,
        0.0,
        0.0
      ]
    },
    {
      "children": [
        5,
        6
      ],
      "name": "space_object_001_gas_giant",
      "rotation": [
        -0.7070798873901367,
        -0.006170665379613638,
        -0.006170665379613638,
        0.7070798277854919
      ],
      "scale": [
        1.0,
        1.0,
        1.0
      ],
      "translation": [
        0.0,
        0.0,
        0.0
      ]
    },
    {
      "mesh": 0,
      "name": "space_object_001_gas_giant_space_object_001_gas_giant_0"
    },
    {
      "mesh": 1,
      "name": "space_object_001_gas_giant_space_object_001_rings_0"
    }
  ],
  "samplers": [
    {
      "magFilter": 9729,
      "minFilter": 9987,
      "wrapS": 10497,
      "wrapT": 10497
    }
  ],
  "scene": 0,
  "scenes": [
    {
      "name": "Sketchfab_Scene",
      "nodes": [
        0
      ]
    }
  ],
  "textures": [
    {
      "sampler": 0,
      "source": 0
    },
    {
      "sampler": 0,
      "source": 1
    },
    {
      "sampler": 0,
      "source": 2
    },
    {
      "sampler": 0,
      "source": 3
    }
  ]
}
