<?xml version="1.0" encoding="UTF-8"?>
<svg version="1.1" viewBox="0 0 2000 2000" width="500" height="500" xmlns="http://www.w3.org/2000/svg">
<path transform="translate(1305,608)" d="m0 0h29l18 2 20 5 13 5 15 9 14 13 11 15 6 13 4 13 4 23v11l-2 19-5 27-5 19-8 23-10 24-14 30-12 22-15 25-11 17-12 18-8 11-10 14-7 11-3 5 9-4h9l8 3 10 9 3 5v8l-4 10-10 17-5 8 5-2h9l6 4 4 5 1 5-7 14-14 23-13 18-14 18-8 9h-2l-2 4-15 14-19 14-18 10-21 8-25 5h-20l-21-4-16-7-11-7-5-1-2 4-13 10-10 9-30 23-18 14-18 13-16 11-18 12-19 12-28 17-28 16-22 12-27 14-24 11-36 15-31 11-24 7-28 6-29 5-9 1h-41l-23-4-18-6-17-9-12-11-7-7-8-11-5-10-5-16-4-23v-19l4-26 6-25 7-23 11-27 14-29 8-16 4-26 4-16 6-16 4-13 5-25 6-15 10-14 8-10 8-7 11-7 12-4 12-1h18l16-16 7-9 5-8-1-11-2-7-1-15v-12l2-17 6-21 2-17 4-16 8-16 9-11 9-9 13-9 13-6 11-3 24-3 18 2 13 4 6 2-8-24-7-12-5-4-16-7-7-2-9-1-1-2 26-9 10-6 7-8 6-16 4-14h2l2 12 6 16 5 7v2l4 2 7 4 18 7 10 4v1l-14 2-18 7-8 7-8 16-3 10v11l10 9 7 10 3 1 13-10 12-9 13-10 30-21 21-14 17-11 21-13 15-9 24-14 26-14 15-8 28-13 20-9 35-13 29-9 29-7 21-4 18-3z" fill="#F4A914"/>
<path transform="translate(1078,746)" d="m0 0h22l16 4 9 6 6 5 7 11 4 13 1 15-2 14-4 13-6 12-5 7-9 7-7 3h-11l-9-3h-9l-8 5-7 10-8 16-7 19-8 29-5 24-1 7v25l4 13 4 5 9 4 11 1 16-4 10-5 8-7 4-6 10-27 8-16 7-12 14-18 11-11 14-11 21-11 16-5 20-3h17l15 2 15 6 10 7 9 9 8 15 4 16v19l-4 15-8 17-10 13-11 10-13 8-10 4-12 3-10 1h-14l-18-3-15-5h-4l-1 8 3 8 7 6 8 4 16 4 9 1h22l18-4 12-4 16-8 13-8 13-11 9-10 8-10 6-2 9 3 6 7 1 5-8 16-9 15-11 16-9 12-14 17-17 17-14 11-15 10-16 8-18 6-16 3h-27l-18-4-14-6-13-9-7-7-8-11-7-14-6-18-1-5-4 5-11 18-9 11-7 9-11 11-13 9-14 7-16 4h-17l-13-4-9-6-8-9-7-15-4-15-1-7v-41l3-23h-16l-33-5-12-2h-2l-2 6-10 18-10 17-8 13-13 18-11 14-9 10-5 6-8 7-7 7-13 10-16 10-15 7-13 4-13 2h-13l-19-2-19-5-17-8-13-10-8-9-8-13-6-16-3-15v-17l4-20 5-13 9-16 13-14 14-8 14-4h15l3 5 3 13 6 10 8 6 11 5 12 3h22l19-5 16-8 15-11 10-9 7-7v-3l-18-10-12-9-12-11-11-11-10-13-10-18-6-17-3-13-1-8v-22l2-11 5-15 7-13 9-11 8-7 13-8 17-6 14-2h16l16 3 14 7 5 4 9 13 4 11 1 4v11l-3 6-3 2-17 1-9 2-10 6-6 8-4 11-1 4v26l4 16 5 12 7 10 1 3 4 2 4 4v2h3l2-6 8-13 16-28 12-19 14-21 12-17 11-14 12-14 9-9 2-3h2l2-4 8-7 10-9 18-13 18-10 14-6 17-5z" fill="#F4A9C5"/>
<path transform="translate(1301,616)" d="m0 0h32l23 3 17 5 16 8 9 6 11 10 7 10 8 16 4 13 2 11 1 12v12l-2 17-5 25-7 25-9 24-9 21-8 16-11 21-16 27-22 33-12 17-14 19-10 13-11 14-7 8-14 17-7 6-12 5-13 3-16 2h-22l-16-5-6-4-1-4 22 5 9 1h13l16-2 18-7 11-6 13-11 9-9 10-15 4-9 4-18v-21l-3-14-5-12-6-10-11-11-13-8-12-5-14-3h-22l-20 3-20 6-21 11-10 7-10 9-10 10-9 12-11 17-8 16-10 28-8 9-10 6-9 2h-12l-6-3-5-9-1-5v-18l3-18 9-36 8-23 9-20 6-8 4-3 9 2 9 3h7l9-3 9-6 9-8 6-10 6-16 3-13v-24l-3-12-6-12-7-8-13-9-11-4-12-2h-17l-21 3-20 6-21 10-15 9-14 11-11 9-24 24-9 11-11 13-11 15-8 12-11 16-19 32-10 17-4 6h-2l-7-11-6-15-3-14v-16l3-11 5-9 8-6 6-2 17-1 8-3 4-5 2-5v-18l-1-7 16-13 11-8 13-10 36-26 24-16 24-15 15-9 19-11 22-12 36-18 19-9 24-10 29-11 29-9 30-8 25-5z" fill="#F4A914"/>
<path transform="translate(1305,608)" d="m0 0h29l18 2 20 5 13 5 15 9 14 13 11 15 6 13 4 13 4 23v11l-2 19-5 27-5 19-8 23-10 24-14 30-12 22-15 25-11 17-12 18-8 11-10 14-7 11-3 5 9-4h9l8 3 10 9 3 5v8l-4 10-10 17-5 8 5-2h9l6 4 4 5 1 5-7 14-14 23-13 18-14 18-8 9h-2l-2 4-15 14-19 14-18 10-21 8-25 5h-20l-21-4-16-7-11-7-5-1-2 4-13 10-10 9-30 23-18 14-18 13-16 11-18 12-19 12-28 17-28 16-22 12-27 14-24 11-36 15-31 11-24 7-28 6-29 5-9 1h-41l-23-4-18-6-17-9-12-11-7-7-8-11-5-10-5-16-4-23v-19l4-26 6-25 7-23 11-27 14-29 8-16 4-26 4-16 6-16 4-13 5-25 6-15 10-14 8-10 8-7 11-7 12-4 12-1h18l16-16 7-9 5-8-1-11-2-7-1-15v-12l2-17 6-21 2-17 4-16 8-16 9-11 9-9 13-9 13-6 11-3 24-3 18 2 13 4 6 2-8-24-7-12-5-4-16-7-7-2-9-1-1-2 26-9 10-6 7-8 6-16 4-14h2l2 12 6 16 5 7v2l4 2 7 4 18 7 10 4v1l-14 2-18 7-8 7-8 16-3 10v11l10 9 7 10 3 1 13-10 12-9 13-10 30-21 21-14 17-11 21-13 15-9 24-14 26-14 15-8 28-13 20-9 35-13 29-9 29-7 21-4 18-3zm-4 8-29 4-31 7-38 11-31 11-26 11-24 11-46 23-23 13-25 15-22 14-21 14-17 12-19 14-12 9-26 20-5 5 1 6v18l-4 8-3 3-7 2-17 1-8 3-7 6-5 10-2 9v16l3 14 6 15 7 11 3-1 15-26 17-28 11-16 13-19 13-16 11-13 9-10 20-20 17-13 11-8 23-12 16-6 17-4 15-2h17l16 3 12 6 11 9 7 10 5 14 1 5v24l-5 19-5 11-6 10-10 9-11 6-5 1h-7l-15-5-4 1-6 5-8 16-8 20-7 23-7 29-2 14v18l3 9 3 5 6 3h12l11-3 9-6 7-8 10-28 8-16 11-17 11-14 15-15 10-7 18-10 12-5 18-5 16-2h22l14 3 12 5 10 6 10 9 7 8 7 15 3 12 1 5v21l-4 18-7 14-9 12-11 11-12 9-15 7-11 4-16 2h-13l-19-3-12-3 2 5 10 5 11 3h22l22-3 15-5 9-6 9-10 9-11 6-7 11-14 16-21 12-17 14-20 9-14 12-19 15-26 12-24 13-30 9-25 8-32 3-18 1-11v-12l-2-18-4-15-7-16-10-14-11-10-13-8-14-6-19-5-18-2zm-223 130-20 3-21 7-19 10-12 8-13 10-10 9-8 7v2l-3 1-7 8-7 7-9 11-13 17-16 23-12 19-12 20-15 26-6 10v2h-3l-2-4-4-4h-2l-2-4-7-11-6-16-2-10v-26l4-13 6-9 9-6 5-2 6-1 17-1 5-5 1-3v-11l-4-13-7-11-5-5-8-6-9-4-16-3h-16l-17 3-16 6-12 8-10 9-9 13-6 13-4 13-1 8v22l3 17 5 16 8 16 7 11 11 13 15 15 13 10 19 11 2 1-1 4-4 5-11 9-10 8-15 9-13 5-13 3h-22l-15-4-11-6-6-5-6-12-3-13-2-2h-15l-14 4-11 6-10 9-8 10-9 17-4 13-3 16v17l3 15 6 16 9 14 9 10 13 9 15 7 19 5 19 2h13l17-3 16-6 15-8 17-12 13-12 7-6 7-8 9-10 10-13 12-17 17-28 8-15 5-9v-2l9 1 23 4 15 2h16l-3 23v41l3 16 5 13 6 11 8 8 12 6 8 2h17l16-4 16-8 13-10 12-12 12-16 11-17 4-7h1l4 15 6 15 6 10 9 11 9 8 12 7 17 6 11 2h27l16-3 18-6 16-8 15-10 10-8 12-11 12-12 8-10 10-13 13-19 14-24 3-7-1-5-6-7-10-3-6 3-13 16-7 7-13 10-20 11-13 5-17 4-5 1h-22l-19-3-12-5-8-6-3-5-1-8 1-4 7 1 16 5 14 2h14l15-2 15-5 12-7 11-9 9-10 8-14 5-11 3-13v-19l-4-16-8-15-11-11-12-7-11-4-15-2h-17l-20 3-18 6-19 10-10 8-12 11-8 9-11 15-11 20-11 29-3 6-7 8-10 6-13 4-12 1-11-3-5-4-4-8-2-8v-25l4-22 7-28 9-27 8-16 6-9 5-5 5-3h9l9 3h11l10-5 6-5 9-14 5-14 2-9 1-14-2-14-4-11-8-11-8-6-8-4-13-3zm-177 269-14 26-12 19-9 14-12 16-8 10-10 11-7 8-11 9-8 7-16 11-16 8-6 2 1 8 5 6 9 4 3 1 1 2-6 1-6 3-6 7-3 10-5-12-8-7-8-2v-2l9-3 6-5 4-7v-2l-7 1-9 2-18 1-17-1-21-4-15-6-13-7-13-11-9-10-8-14-3-5-3 3-11 20-9 16-12 24-12 28-8 24-7 27-3 19-1 11v16l2 17 4 15 5 12 6 10 9 10 9 8 14 8 15 6 16 4 20 2h19l23-2 29-5 30-7 32-10 42-16 33-15 17-8 19-10 22-12 24-14 16-10 42-28 23-16 17-12 18-14 16-12 13-11 10-8 17-14 14-12 11-9v-3l-11-3-14-9-13-10-8-11-6-9-6-15-3 1-6 9-11 14-12 12-19 14-10 5-15 5-10 1h-11l-13-2-10-4-10-7-7-8-6-12-4-12-3-20v-41l1-13-32-4-10-2z" fill="#060209"/>
<path transform="translate(770,911)" d="m0 0 3 4 10 17 12 14 14 14 13 10 19 11 3 2-1 4-5 6-11 9-10 8-15 9-13 5-13 3h-22l-15-4-11-6-7-6-6-12-3-13-1-1h-15l-14 4-11 6-10 9-8 11-8 15-4 13-3 16v17l3 15 6 16 9 14 8 9 13 9 15 7 19 5 19 2h13l17-3 16-6 15-8 17-12 13-12 3-1 2-4h2l2-4 9-9 11-14 12-17 6-9 15-25 13-24 4-1 28 5 15 2 16 1v8l-2 15v41l3 16 5 13 6 11 7 7 12 6 8 2h17l16-4 16-8 13-10 11-11 12-16 11-17 5-8 2 1 4 15 6 15 6 10 9 11 8 7 12 7 17 6-1 7-1 5v4l-20 20-1 6-9-3-2 4-13 10-10 9-30 23-18 14-18 13-16 11-18 12-19 12-28 17-28 16-22 12-27 14-24 11-36 15-31 11-24 7-28 6-29 5-9 1h-41l-23-4-18-6-17-9-12-11-7-7-8-11-5-10-5-16-4-23v-19l4-26 6-25 7-23 11-27 14-29 8-16 4-26 4-16 6-16 4-13 5-25 6-15 10-14 8-10 8-7 11-7 12-4 12-1h18l16-16 7-9 5-5 7-8 2-4 7-6 1-2h2v-2l2 1 2-3 1-2h-2l-1-3zm131 104-14 26-12 19-9 14-12 16-8 10-10 11-7 8-11 9-8 7-16 11-16 8-6 2 1 8 5 6 9 4 3 1 1 2-6 1-6 3-6 7-3 10-5-12-8-7-8-2v-2l9-3 6-5 4-7v-2l-7 1-9 2-18 1-17-1-21-4-15-6-13-7-13-11-9-10-8-14-3-5-3 3-11 20-9 16-12 24-12 28-8 24-7 27-3 19-1 11v16l2 17 4 15 5 12 6 10 9 10 9 8 14 8 15 6 16 4 20 2h19l23-2 29-5 30-7 32-10 42-16 33-15 17-8 19-10 22-12 24-14 16-10 42-28 23-16 17-12 18-14 16-12 13-11 10-8 17-14 14-12 11-9v-3l-11-3-14-9-13-10-8-11-6-9-6-15-3 1-6 9-11 14-12 12-19 14-10 5-15 5-10 1h-11l-13-2-10-4-10-7-7-8-6-12-4-12-3-20v-41l1-13-32-4-10-2z" fill="#06020A"/>
<path transform="translate(1326,978)" d="m0 0h9l8 3 10 9 3 5v8l-4 10-10 17-5 8 5-2h9l6 4 4 5 1 5-7 14-14 23-13 18-14 18-8 9h-2l-2 4-15 14-19 14-18 10-21 8-25 5h-20l-21-4-16-7-7-4v-7l21-21 1-2-2-1 1-7v-4l13 1h27l16-3 18-6 16-8 15-10 10-8 12-11 11-11 8-10 10-13 13-19 14-24 3-7-1-5-5-6-10-3-6 3-11 14-9 9-13 10-4 2h-3v-2l5-4h2l1-3 8-5 4-8 7-10 2-10 3-3v2z" fill="#020321"/>
<path transform="translate(881,672)" d="m0 0h2l2 12 6 16 5 7v2l4 2 7 4 18 7 10 4v1l-14 2-18 7-8 7-8 16-3 10-1 10h-6l-1 5-6-1-12-3-7-1h-16l-17 3-16 6-12 8-9 8-9 13-6 13-4 13-1 8v22l3 17 5 16 1 2v6l-1 5h2l-2 6-2 1-1-1h-2l-2 4-7 6-2 5-7 6 1-10-3-12-1-15v-12l2-17 6-21 2-17 4-16 8-16 9-11 9-9 13-9 13-6 11-3 24-3 18 2 13 4 6 2-8-24-7-12-5-4-16-7-7-2-9-1-1-2 26-9 10-6 7-8 6-16z" fill="#050623"/>
<path transform="translate(769,932)" d="m0 0 3 1 7 10 9 10 13 13 14 10 12 7 3 1-1 4-7 7-10 7-13 8-19 7-11 2h-10l-13-2-13-7-8-11-2-6v-7l4-7 11-12 9-11 11-11 7-8z" fill="#F4A915"/>
<path transform="translate(996,857)" d="m0 0h8l2 2v12l-5 16-15 36-11 30-7 23-5 1-25-3-17-4-3-1 1-6 14-24 15-26 10-15 10-14 9-11 5-6 10-8z" fill="#030108"/>
<path transform="translate(770,911)" d="m0 0 3 4 10 17 12 14 14 14 13 10 19 11 3 2-1 4-5 6-11 9-10 8-15 9-13 5-13 3h-22l-15-4-11-6-7-6-6-12-3-13-2-4 1-6 8-1 16-16 7-9 5-5 7-8 2-4 7-6 1-2h2v-2l2 1 2-3 1-2h-2l-1-3zm-1 21-7 8-12 13-11 12-9 11-6 7-1 3v7l3 8 8 10 12 6 13 2h10l14-3 16-6 16-10 10-8 5-5v-3l-14-7-8-6-10-8-17-17-10-14z" fill="#050109"/>
<path transform="translate(1206,932)" d="m0 0h15l9 4 5 6 2 6v9l-3 8-7 8-10 6-3 1h-15l-10-5-5-6-1-2v-14l5-10 7-6 8-4z" fill="#030108"/>
<path transform="translate(995,867)" d="m0 0h1l-1 9-10 26-13 33-10 30-2 2-14-1-15-2v-4l17-28 10-17 11-16 12-17 12-14z" fill="#F4A917"/>
<path transform="translate(701,975)" d="m0 0h11l-1 9-15 1-14 4-11 6-10 9-8 11-8 15-4 13-3 16v17l1 13-2 1-2 4-2 3h-2l-1 3-1-3v-2l-8 15-5 5-3 2 3-20 5-16 6-15 7-33 6-15 10-14 8-10 8-7 11-7 12-4z" fill="#08040C"/>
<path transform="translate(910,1007)" d="m0 0 12 1 21 3 16 1v8l-2 15v41l3 16 5 13 6 11 7 7 13 7-3 1 1 7 8 1v1l-9-1-10-4-10-7-8-9-6-12-4-12-3-20v-41l2-13-15-1-21-3-6-1v-2h5l-1-4z" fill="#030108"/>
<path transform="translate(921,1163)" d="m0 0 2 3 3 14 5 8v2l4 2 11 5 13 4v2l-12 3-14 7-5 6-4 9-2 12-3-1-5-17-4-6v-2l-4-2-13-6-12-3v-2l20-7 6-4 6-7 6-16z" fill="#030108"/>
<path transform="translate(1314,642)" d="m0 0 2 2 6 18 6 8 8 5 18 6v2l-15 3-11 6-5 6-5 12-3 8h-2l-3-14-5-9-6-5-11-5-12-3 2-2 16-5 9-6 4-5 5-13z" fill="#030108"/>
<path transform="translate(751,861)" d="m0 0 5 2 3 10h2l3 17 5 16 1 2v6l-1 5h2l-2 6-2 1-1-1h-2l-2 4-7 6-2 5-7 6 1-10-3-12-1-15v-12l2-17 5-18z" fill="#040521"/>
<path transform="translate(827,771)" d="m0 0 4 1-2 7-17 5-10 4-12 8-9 8-9 13-6 13-4 13-1 8-1 22-3-3-2-7-4-2 2-19 4-16 8-16 9-11 9-9 13-9 13-6 11-3z" fill="#09040C"/>
<path transform="translate(708,1294)" d="m0 0h2l3 13 6 7 8 4 12 3-1 2-13 3-8 6-4 5-3 10-2 4-3-8-4-9-5-5-8-4-9-2-1-2 14-4 8-6 4-6 3-10z" fill="#030108"/>
<path transform="translate(1326,978)" d="m0 0h9l8 3 10 9 3 5v8l-4 10-10 17-2-2 1-2h-2l-1-3-3 2 2-5 9-16 1-6-4-6-4-3-8-2-6 3-11 14-9 9-13 10-4 2h-3v-2l5-4h2l1-3 8-5 4-8 7-10 2-10 3-3v2z" fill="#090822"/>
<path transform="translate(1210,941)" d="m0 0h10l6 4 2 3v7l-4 8-8 7-7 2h-9l-7-4-2-5 1-9 4-6 5-4z" fill="#F4A917"/>
<path transform="translate(640,1033)" d="m0 0h3l-2 10-3 16v17l1 13-2 1-2 4-2 3h-2l-1 3-1-3v-2l-8 15-5 5-3 2 3-20 5-16 6-15 4-20 5-1 1-3 1-7z" fill="#050521"/>
<path transform="translate(1294,992)" d="m0 0 1 2-7 8-14 17-7 6-12 5-13 3-16 2h-22l-16-5-6-4-1-4 22 5 9 1h13l16-2 18-7 11-6 13-11z" fill="#F4A923"/>
<path transform="translate(883,765)" d="m0 0 1 4-1 10h-6l-1 5-6-1-12-3-7-1h-22l1-7 4-2 10-1 18 2 13 4 6 2-3-11z" fill="#070722"/>
<path transform="translate(1177,786)" d="m0 0 2 1 4 11 7 4 7 3v2l-11 4-5 7-2 6h-2l-4-10-6-5-8-2v-2l12-5 3-3z" fill="#030108"/>
<path transform="translate(821,1271)" d="m0 0 3 3 3 9 6 4 8 2-3 3-8 4-4 5-3 8h-2l-4-10-5-4-8-5 2-2 9-3 4-5z" fill="#030108"/>
<path transform="translate(641,1205)" d="m0 0h2l2 9 4 5 10 4v2l-10 4-4 4-2 9h-2l-5-10v-2l-4-2-8-3 1-3 8-3 6-9z" fill="#040108"/>
<path transform="translate(1177,685)" d="m0 0h2l3 8 3 4v2l11 3 2 2-12 5-4 5-3 8h-2l-4-11-4-3-7-3v-3l10-4 3-5z" fill="#030108"/>
<path transform="translate(1343,982)" d="m0 0 5 3 7 8 1 2v8l-4 10-10 17-2-2 1-2h-2l-1-3-3 2 2-5 9-16 1-6-2-5h2l-2-6z" fill="#0C060F"/>
<path transform="translate(701,975)" d="m0 0h11l-1 9-15 1-14 4-9 4-1-3 4-5h2l2-6 9-3z" fill="#040420"/>
<path transform="translate(1081,852)" d="m0 0h9l5 2 1 5h-2v2l2 1h-7l-6-1-3 2-4-1-1-5 4-4z" fill="#01021B"/>
<path transform="translate(1333,1027)" d="m0 0 4 1-3 10-5 5-4 8-4 3-5 2-3 2 2-4 11-16z" fill="#030108"/>
<path transform="translate(701,975)" d="m0 0h11l-1 9h-11l-5-1-3-3-8-1 2-2 3-1z" fill="#0A050D"/>
<path transform="translate(1338,1022)" d="m0 0 1 4h2v6l-4 6v3l-6 9-6 5 2-5 2-8 3-1 3-10 2-3-3-1v-2z" fill="#030420"/>
<path transform="translate(899,1007)" d="m0 0h11l3 4-1 3h-8l-5-2z" fill="#010321"/>
<path transform="translate(842,720)" d="m0 0 3 1-2 4h-2l1 3-13-1-1-2z" fill="#261924"/>
<path transform="translate(988,1131)" d="m0 0 5 1 4 2 2 5-10-1z" fill="#010220"/>
<path transform="translate(630,1059)" d="m0 0h2l1 8-3 4-5 2 3-11z" fill="#0C070E"/>
<path transform="translate(709,975)" d="m0 0 3 1-1 8-6-1-1-4 2-3z" fill="#0F0C2A"/>
<path transform="translate(769,1023)" d="m0 0h15l-4 2-4 1h-18v-1z" fill="#010321"/>
<path transform="translate(1335,1039)" d="m0 0 3 1-7 10-6 5 2-5 2-4h2l2-5z" fill="#040108"/>
<path transform="translate(883,765)" d="m0 0 1 4-1 10-4-2h2l-3-11z" fill="#34222E"/>
<path transform="translate(881,672)" d="m0 0h2l1 12-6 1 2-10z" fill="#251824"/>
<path transform="translate(1247,1037)" d="m0 0 5 1v3l-4 1h-8v-2z" fill="#01021C"/>
<path transform="translate(923,722)" d="m0 0 11 3 1 2-12 1z" fill="#281A25"/>
<path transform="translate(1e3 859)" d="m0 0h2v12l-2 2-2-7z" fill="#01021C"/>
<path transform="translate(1081,852)" d="m0 0h9l-2 4-5 1-3-3z" fill="#040108"/>
<path transform="translate(748,936)" d="m0 0 6 1-2 4-6 5z" fill="#4F3543"/>
<path transform="translate(830,976)" d="m0 0 5 2 8 4-1 2-6-2-4-1-2-2z" fill="#010218"/>
<path transform="translate(1182,1014)" d="m0 0 6 1v2h-2v2h-7l1-3h2z" fill="#01021C"/>
<path transform="translate(875,934)" d="m0 0h4l-1 6-4 1-1-5z" fill="#010220"/>
<path transform="translate(1220,935)" d="m0 0 3 1 1 4-3 1-6-1v-2l5-1z" fill="#010321"/>
<path transform="translate(1342,1036)" d="m0 0h9l4 2v2l-12-2z" fill="#150D16"/>
<path transform="translate(775,807)" d="m0 0h2l-2 5-4 4 1-7z" fill="#01021D"/>
</svg>
