<?xml version="1.0" encoding="UTF-8"?>
<svg version="1.1" viewBox="0 0 2000 2000" width="500" height="500" xmlns="http://www.w3.org/2000/svg">
<path transform="translate(1636,77)" d="m0 0h47l38 4 26 5 28 8 22 9 16 8 14 8 19 14 13 12 12 13 15 20 12 22 8 20 6 20 4 19 3 23 1 21v20l-1 24-5 38-6 30-9 36-9 30-12 33-12 30-12 27-12 26-17 34-13 23-9 17-16 27-14 23-14 22-16 24-16 23-14 19-9 13-1 5 1 7v30l-1 10 14-14 12-6 9-2 14 1 12 4 13 9 9 9 8 16 2 12-3 12-10 19-10 18-1 3 9 1 12 6 6 5 7 10 2 5v8l-8 16-11 20-16 26-13 20-10 15-10 14-12 16-13 16-9 11-12 13-9 11-12 12-8 7-12 11-11 9-10 9-17 12-17 11-15 9-19 10-25 10-26 8-28 6-18 2h-45l-18-2-20-4-23-8-20-9-19-12-7-5h-4l-1 3-9 7-13 11-12 10-11 9-12 10-11 9-8 7-13 10-11 9-17 13-9 7-12 9-26 20-12 9-19 14-12 8-20 14-23 16-16 11-15 10-19 12-23 15-18 11-19 12-15 9-23 13-42 24-22 12-17 9-68 34-24 11-32 14-38 16-40 15-56 19-45 13-50 12-35 7-37 5-33 3-18 1h-37l-36-4-27-5-31-9-25-10-23-12-12-8-11-9-10-9-9-9-11-14-9-12-10-18-9-20-7-23-6-29-2-17v-60l2-19 7-41 10-40 12-39 11-30 11-28 13-29 11-24 8-16 13-25 10-19 3-6 1-12 2-18 4-24 4-16 7-19 11-24 7-14 3-15 7-28 8-20 8-17 20-30 11-12 15-15 14-10 16-9 14-6 18-5 18-2 12-1h10l16-17 12-14 9-11 10-10 8-10 9-10 7-8 11-11v-7l-4-15-4-21-3-23v-41l5-28 7-24 7-21 3-18 5-21 7-19 8-17 8-12 10-14 8-8 7-8 15-14 16-11 17-10 14-6 24-8 22-4 10-1h45l13 2 19 5 14 5 16 8 10 8 13 11 7 8 2 4 4 2v2l7-4 9-7 28-21 13-10 18-13 19-13 10-7 17-12 16-11 20-14 22-14 19-12 25-16 19-12 24-14 25-14 46-26 47-24 15-8 16-8 25-12 36-16 43-18 26-10 30-11 47-16 30-9 38-10 38-8 30-5 29-4 23-2z" fill="#FEB92D"/>
<path transform="translate(1199,354)" d="m0 0h30l24 3 17 5 16 8 11 8 8 7 10 13 8 16 5 15 3 17 1 7v20l-3 24-5 20-8 21-10 18-9 11-10 10-15 9-13 5h-12l-16-4-15-5-4-1h-10l-13 7-10 10-11 16-12 23-10 23-12 34-15 54-8 32-6 32-2 15-1 13v20l3 22 5 15 6 11 5 6 10 7 11 4 19 2 17-2 21-6 12-5 13-8 9-7 7-7 7-10 4-8 7-22 9-25 11-24 12-23 8-13 8-12 12-16 14-17 9-10 8-7 8-8 14-11 13-10 18-11 15-8 27-11 23-7 14-3 21-3 16-1h24l20 2 21 5 19 7 17 9 11 8 10 9 9 10 10 15 9 20 5 17 3 16 1 12v22l-3 20-7 24-9 20-9 15-10 13-9 11-13 13-16 12-16 10-21 10-20 6-24 4-11 1h-28l-24-3-19-4-16-6-11-5h-7l-5 3-3 5v15l4 10 8 11 14 10 16 7 20 6 29 4h36l23-3 25-5 20-6 21-8 27-14 19-12 18-14 10-9 8-7 7-7 9-11 13-18 5-6 5-3 5-1h8l11 4 11 8 6 9 1 3v11l-8 16-13 23-15 24-19 28-14 19-8 11-13 16-9 11-16 17-29 29-11 9-12 10-13 10-15 10-19 11-15 8-24 10-27 8-22 5-17 2-15 1h-17l-31-3-21-4-22-8-17-8-16-10-13-11-10-9-9-11-10-14-12-21-8-18-6-18-5-20-2-11-6 11-7 12-12 19-11 16-8 11-11 14-9 10-11 12-16 16-13 10-17 11-14 8-19 8-18 5-16 3h-32l-16-4-13-5-10-6-12-11-11-13-9-16-7-16-7-25-4-24-2-23v-43l3-33 5-38-39-3-39-5-36-6-20-4-13 24-26 46-12 21-12 19-8 12-12 17-14 19-9 12-9 11-11 13-8 8-7 8-11 12-16 16-8 7-12 10-14 11-17 12-21 13-19 10-13 5-2-4v-6h-2v9l-5 5-22 7-21 4-12 1h-25l-26-2-18-3-31-8-16-6-16-8-14-8-15-11-10-9-9-9-11-14-10-16-8-16-6-16-6-25-3-24v-27l3-22 5-22 6-18 9-20 10-17 9-12 11-12 9-9 16-12 14-8 15-6 15-4 15-2h14l8 3 4 6 4 23 5 13 7 11 10 11 15 10 16 8 15 5 15 3 10 1h22l21-2 22-5 23-8 20-10 20-13 12-9 14-11 17-16 14-15 3-5-6-2-22-12-24-16-12-9-17-14-14-12-15-15-9-11-12-15-10-15-13-21-11-24-8-22-7-30-3-21-1-18v-13l1-18 3-19 6-22 7-17 7-14 10-15 12-13 6-7 8-7 14-11 11-7 16-8 14-5 21-6 18-3 11-1h27l24 3 16 5 23 11 12 9 9 9 8 11 9 17 4 13 3 18v17l-3 8-6 7-9 3h-29l-19 5-16 8-8 7h-2l-2 4-8 10-7 15-4 13-3 22v26l3 23 5 21 7 19 8 16 10 15 11 13 5 5 11 10 2 1 2-6 11-18 14-24 16-29 12-21 12-20 9-14 12-19 20-30 13-18 14-20 20-25 11-14 11-13 9-11 4-5 40-40 8-7 11-10 11-9 14-11 18-13 14-9 19-11 16-8 17-8 22-8 22-6 22-4z" fill="#FEFDFC"/>
<path transform="translate(1643,85)" d="m0 0h34l33 3 30 5 25 6 22 8 25 12 16 10 12 9 13 12 13 13 13 18 9 16 9 20 6 19 5 24 3 19 2 35-1 25-3 27-6 36-8 34-12 40-9 26-16 40-16 36-17 35-13 25-10 18-14 25-17 28-9 14-10 16-19 29-9 13-10 14-13 18-12 18-3 3 1-4 6-21 3-27v-24l-2-18-5-22-6-16-9-17-10-14-13-15-7-7-17-12-19-10-24-8-19-4-19-2h-43l-26 4-26 6-24 8-18 8-22 12-18 12-14 11-13 11-8 7-6 7-12 12-9 11-13 16-12 18-10 16-10 18-12 27-8 21-9 29-7 11-8 9-10 7-16 8-17 4-12 2h-11l-11-4-9-8-7-14-3-14-1-12v-13l3-25 6-32 12-49 12-41 9-26 9-21 8-17 11-18 12-13 1-1 10 1 24 8 6 1h10l15-2 17-7 10-7 13-11 13-17 9-16 8-17 7-23 4-22 2-27-2-22-3-15-4-13-8-17-8-12-9-11-10-9-15-10-19-9-19-5-12-2-12-1h-34l-25 3-27 6-30 9-24 10-20 10-22 13-25 17-19 14-15 13-14 12-12 12-7 6-5 6-6 5-7 8-12 13-9 11-8 9-11 14-9 11-14 18-10 14-13 18-28 42-16 26-13 21-13 23-8 14-13 23-9 16-2 4h-2l-12-16-8-14-7-16-5-16-4-24v-35l3-17 4-11 6-11 10-11 11-7 12-4 7-1h33l10-4 10-9 5-9 4-11 1-15-2-20-5-17-5-13-3-8 9-8 11-8 42-32 34-24 16-11 18-13 39-26 19-12 16-10 19-12 24-15 28-16 26-15 28-16 27-14 24-12 19-10 24-12 28-13 31-14 39-16 26-10 34-12 33-11 34-10 56-14 43-8 36-5 26-2z" fill="#FEB92D"/>
<path transform="translate(1636,77)" d="m0 0h47l38 4 26 5 28 8 22 9 16 8 14 8 19 14 13 12 12 13 15 20 12 22 8 20 6 20 4 19 3 23 1 21v20l-1 24-5 38-6 30-9 36-9 30-12 33-12 30-12 27-12 26-17 34-13 23-9 17-16 27-14 23-14 22-16 24-16 23-14 19-9 13-1 5 1 7v30l-1 10 14-14 12-6 9-2 14 1 12 4 13 9 9 9 8 16 2 12-3 12-10 19-10 18-1 3 9 1 12 6 6 5 7 10 2 5v8l-8 16-11 20-16 26-13 20-10 15-10 14-12 16-13 16-9 11-12 13-9 11-12 12-8 7-12 11-11 9-10 9-17 12-17 11-15 9-19 10-25 10-26 8-28 6-18 2h-45l-18-2-20-4-23-8-20-9-19-12-7-5h-4l-1 3-9 7-13 11-12 10-11 9-12 10-11 9-8 7-13 10-11 9-17 13-9 7-12 9-26 20-12 9-19 14-12 8-20 14-23 16-16 11-15 10-19 12-23 15-18 11-19 12-15 9-23 13-42 24-22 12-17 9-68 34-24 11-32 14-38 16-40 15-56 19-45 13-50 12-35 7-37 5-33 3-18 1h-37l-36-4-27-5-31-9-25-10-23-12-12-8-11-9-10-9-9-9-11-14-9-12-10-18-9-20-7-23-6-29-2-17v-60l2-19 7-41 10-40 12-39 11-30 11-28 13-29 11-24 8-16 13-25 10-19 3-6 1-12 2-18 4-24 4-16 7-19 11-24 7-14 3-15 7-28 8-20 8-17 20-30 11-12 15-15 14-10 16-9 14-6 18-5 18-2 12-1h10l16-17 12-14 9-11 10-10 8-10 9-10 7-8 11-11v-7l-4-15-4-21-3-23v-41l5-28 7-24 7-21 3-18 5-21 7-19 8-17 8-12 10-14 8-8 7-8 15-14 16-11 17-10 14-6 24-8 22-4 10-1h45l13 2 19 5 14 5 16 8 10 8 13 11 7 8 2 4 4 2v2l7-4 9-7 28-21 13-10 18-13 19-13 10-7 17-12 16-11 20-14 22-14 19-12 25-16 19-12 24-14 25-14 46-26 47-24 15-8 16-8 25-12 36-16 43-18 26-10 30-11 47-16 30-9 38-10 38-8 30-5 29-4 23-2zm7 8-36 2-39 5-35 6-36 8-35 9-40 12-36 12-36 13-37 15-35 15-36 17-25 12-17 9-46 23-22 12-24 14-28 16-24 14-19 12-24 15-19 12-25 16-16 11-20 14-17 12-16 11-18 13-19 14-18 14-28 21-3 4 7 17 5 16 2 13 1 14-2 16-5 11-6 8-7 6-10 4h-33l-14 3-12 6-9 8-8 11-6 13-3 13-1 8v35l4 24 8 24 10 19 10 14 4 5h2l9-17 12-21 9-16 12-21 17-28 15-24 22-33 11-16 28-38 10-12 11-14 11-13 13-15 12-13 5-5 6-7 5-5 13-12 7-7 11-9 11-10 20-15 30-20 15-9 27-14 25-10 31-9 29-6 19-2h34l19 2 21 5 16 7 11 6 16 12 7 7 11 15 9 17 5 14 3 13 2 14 1 15-2 26-5 26-8 24-10 20-8 12-11 14-14 12-12 7-13 5-15 2h-10l-16-4-18-6h-6l-9 9-9 13-6 10-13 28-10 27-10 32-8 30-9 37-6 32-3 25v13l2 18 4 13 6 10 8 7 11 4h11l22-4 12-4 16-9 9-8 10-14 14-42 11-26 8-16 9-17 10-15 11-16 13-16 18-21 7-6 13-13 14-11 13-10 21-13 23-12 27-10 28-7 23-4 8-1h43l24 3 21 5 19 7 19 10 12 9 10 9 10 11 11 15 9 16 7 16 5 21 2 12 1 11v24l-3 27-6 21-1 4 3-3 12-18 26-36 18-27 12-19 20-32 13-22 12-21 15-28 14-27 13-27 15-34 16-41 12-36 10-35 6-26 6-36 3-27 1-25-2-35-5-30-5-20-7-19-10-21-7-11-13-17-19-19-14-11-17-11-22-11-24-9-19-5-31-6-27-3-14-1zm-444 269-27 3-27 6-27 9-18 8-19 9-13 8-17 10-16 12-11 8-10 8-14 12-12 11-10 9-30 30-7 8-12 14-9 11-11 14-13 16-11 15-14 20-13 18-15 23-12 19-10 16-12 20-8 14-13 23-11 20-16 27-6 10v2l-10-8-6-5-9-11-9-12-9-15-8-19-6-20-4-23-1-10v-26l3-22 6-18 7-13 8-9v-2l4-2 11-8 14-6 16-4h29l9-3 7-8 2-7v-17l-3-18-5-15-9-17-11-13-7-7-14-9-21-10-19-5-19-2h-27l-24 3-20 5-18 6-16 8-10 6-13 10-10 9-7 6-7 8-9 11-9 15-7 14-7 19-5 21-2 14-1 18v13l2 26 4 23 7 26 10 25 8 17 12 19 11 16 11 14 12 14 15 15 11 9 14 12 19 14 22 14 24 13h2l-4 6-8 8-7 8-7 7-8 7-16 13-16 11-18 11-21 10-21 7-26 5-14 1h-22l-21-3-16-5-12-5-15-9-10-8-10-12-8-16-3-15-2-12-4-6-8-3h-14l-20 3-21 7-15 8-16 12-10 9-10 10-10 13-12 20-9 20-6 18-5 22-3 22v27l3 24 6 25 6 16 8 16 10 16 8 10 11 12 8 8 18 13 21 12 19 8 32 9 15 3 16 2 18 1h25l19-2 21-5 17-6 3-4v-9h2l1 9 2 1 20-9 18-10 14-9 17-12 11-9 10-8 20-18 17-17 7-8 11-12 9-10 11-14 10-13 13-18 10-14 17-26 9-15 16-28 12-22 10-18 9-16 26 5 36 6 33 4 39 3-6 46-2 25v43l2 23 4 24 7 25 7 16 6 11 8 11 11 12 10 8 14 7 16 5 6 1h32l21-4 18-6 16-7 17-10 16-11 13-11 20-20 7-8 10-12 10-13 15-22 10-16 8-13 6-10 1-3 5 24 6 20 9 21 11 20 12 17 13 15 10 9 12 9 17 10 18 8 21 7 25 4 23 2h17l24-2 18-3 30-8 22-8 19-9 18-10 20-13 13-10 10-8 13-11 10-9 31-31 7-8 12-14 11-14 10-14 14-19 12-18 12-19 12-20 14-25 2-5v-11l-5-10-8-7-12-6-4-1h-8l-7 2-5 4-13 18-11 13-7 8-7 7-8 7-14 11-14 10-19 11-21 11-24 9-21 6-26 5-18 2h-38l-27-4-20-6-16-7-14-10-8-11-4-10v-15l3-5 5-3h7l18 8 17 5 24 4 11 1h28l24-3 19-4 19-7 21-11 17-12 11-9 13-13 11-14 10-15 8-15 8-21 5-20 2-15v-22l-2-19-4-17-6-16-8-16-9-13-11-12-9-8-16-10-17-8-19-6-14-3-20-2h-24l-24 2-23 4-24 7-25 10-19 9-14 9-17 12-13 11-8 7-8 8-7 6-9 11-11 13-10 14-8 12-10 17-12 23-9 20-11 30-6 20-7 11-11 12-11 8-14 8-24 8-11 2-15 1-15-2-13-5-11-9-6-10-5-12-3-13-2-16v-20l2-21 5-29 7-30 12-45 9-30 11-30 11-24 10-19 12-16 8-8 13-7h10l29 9 6 1h12l13-5 15-9 13-13 7-10 9-16 8-21 5-20 3-24v-20l-3-20-5-16-5-12-7-11-11-13-12-9-14-8-18-6-17-3-11-1zm-384 578-15 26-15 27-9 16-11 17-11 18-8 12-13 18-14 19-7 9-9 11-13 15-12 14-35 35-11 9-13 11-18 13-19 12-16 9-25 12v4l6 7 16 8 13 3h6v2l-17 4-12 5-8 6-6 8-6 16-2 9v4h-2l-3-16-5-13-6-8-5-4-12-6-19-6 10-2 13-4 11-6-4-1-18 4-18 2h-21l-36-3-26-4-28-7-21-8-22-12-15-10-9-7-13-12-9-9-11-14-9-14-11-21-7-19-5-17-3 3-28 48-15 28-14 27-14 29-13 29-16 40-14 41-8 27-7 30-6 32-4 34-1 12v22l3 36 4 24 7 25 10 24 10 18 12 16 9 10 15 15 16 12 19 11 19 9 22 8 24 6 26 5 39 4h31l45-3 38-5 39-7 40-9 43-12 55-18 32-12 28-11 54-23 37-17 20-10 19-10 36-18 22-12 18-10 19-11 23-13 24-14 17-11 19-12 17-11 25-16 21-14 18-13 11-7 18-13 19-13 18-13 19-14 18-14 11-8 21-16 16-12 13-11 33-27 13-11 10-8 13-11 8-7 11-10 8-7 12-11 11-9 11-11-12-5-25-12-12-8-13-10-9-8-7-8-10-12-10-15-10-17-11-24-2-5h-2l-6 11-13 18-16 21-15 16v2l-4 2-10 10-11 9-13 10-15 10-19 10-21 8-21 5-18 2h-29l-17-3-16-6-12-6-13-10-13-13-9-13-11-21-6-15-7-26-4-26-2-24v-40l4-47 1-8-45-5-37-6-15-3z" fill="#030720"/>
<path transform="translate(1197,334)" d="m0 0h34l19 2 21 5 16 7 11 6 16 12 8 8 11 15 9 17 5 14 3 13 2 14 1 15-2 26-5 26-8 24-10 20-8 12-11 14-10 9-13 9-17 7-15 2h-10l-16-4-18-6h-6l-8 8-9 13-6 10-13 28-10 27-10 32-8 30-9 37-6 32-3 25v13l2 18 4 13 6 10 7 6 11 4h11l22-4 12-4 16-9 8-7 10-14 14-42 11-26 8-16 9-17 10-15 11-16 13-16 12-14 7-8 6-5 14-14 14-11 13-10 21-13 23-12 27-10 28-7 23-4 8-1h43l24 3 21 5 19 7 19 10 12 9 10 9 11 12 11 15 9 16 7 16 5 21-1 2-1-3h-2v-4l-5-2-2-3-2-6-3-4-2-11h-2l-3-4 1 7-1 3 1 3-6 2-5-12-6-11-9-12-9-10-9-8-16-10-17-8-19-6-14-3-20-2h-24l-24 2-23 4-24 7-25 10-19 9-14 9-17 12-13 11-8 7-8 8-6 5-9 11-11 13-10 14-8 12-10 17-12 23-9 20-11 30-6 20-7 11-11 12-10 8-16 9-24 8-11 2-15 1-15-2-13-5-11-9-6-9-5-11-4-16-2-16v-20l2-21 5-29 7-30 12-45 9-30 11-30 11-24 10-19 12-16 9-9 13-7h10l29 9 6 1h12l13-5 15-9 12-12 7-10 9-16 8-21 5-20 3-24v-20l-3-20-5-16-5-12-7-11-11-13-11-8-14-8-18-6-17-3-11-1h-30l-27 3-27 6-27 9-18 8-19 9-13 8-6 3 1-4-3-1v-2l-10 5-6 2-3 5h-2v2l-7 1-5 5-2 4-12 3-3 6-4 1v4l-4 1-4 4h-3l-1 5-4 5-8 7h-2l-2 5h-2l-1 5h-3l-3 3h-2v3l-4 1-1 3-2-1v-2l-7 2-6 7 1 2 3-1-1 4-3 6-3 8h-2l-1 3-4-1 1 3-3 2-1-1-2 3-5 2-4 6-5 5h-2l-2 4-7 8-1 3-4 1-6 4 1 3-2 1-3 5-5 6-1 5h-2l-2 5-5 7-3 5-4 6h-2l-1 4-1 2h-2l-2 5-6 11-3 5-3 1-2 6-1 6-2 1-2 2h-3l1 3h-2l-1 4-3 5h-2l1 3-5 4h-2l-1 4-7 12-5 8h-2l-2 6-9 15-2 4h-2l-1 4-5 10-10 17-5 7-2 4-6-1v2h-3v3h-2l-2 4-4 2 1-6 14-25 20-35 17-28 15-24 22-33 11-16 28-38 10-12 11-14 11-13 13-15 12-13 4-5 4-4h2l2-4h2l2-4 15-14 14-13 11-9 12-10 18-13 23-15 15-9 27-14 25-10 31-9 29-6z" fill="#030620"/>
<path transform="translate(519,730)" d="m0 0 5 5 10 17 11 17 14 17 9 11 7 8 8 7 11 11 8 7 17 13 18 13 11 7 13 8-1 4-12 11-11 9-13 10-22 14-17 8-19 7-21 5-16 2h-23l-14-2-21-6-15-8-11-9-8-9-5-10-2-7-3-20-5-10-8-7-4-2 2-5 12-13 9-11 11-12 7-8 12-14 8-8 7-8 8-8 7-8z" fill="#FEB92D"/>
<path transform="translate(1022,590)" d="m0 0h9l6 3 4 8v16l-4 17-7 20-11 27-6 13-13 31-12 31-14 39-11 35-6 20-4 2-29-2-34-4-25-5-20-6 2-5 14-26 9-15 8-14 11-19 14-24 12-19 10-16 10-15 9-13 10-14 12-16 8-10 18-20 11-9 8-6z" fill="#030620"/>
<path transform="translate(1636,77)" d="m0 0h47l38 4 26 5 28 8 22 9 16 8 14 8 19 14 13 12 12 13 15 20 12 22 8 20 6 20 4 19 3 23 1 21v20l-1 24-5 38-6 30-9 36-9 30-12 33-12 30-12 27-12 26-17 34-13 23-9 17-16 27-14 23-14 22-16 24-16 23-14 19-9 13h-3l-2 4-4 6v3l-12 17-5 7-1-2 1-3-1-1v-5h2l2-5 12-20 12-17 14-19 9-13 21-32 10-16 11-17 19-32 12-21 15-28 14-27 13-27 15-34 16-41 12-36 10-35 6-26 6-36 3-27 1-25-2-35-5-30-5-20-7-19-10-21-7-11-13-17-18-18-14-11-17-11-22-11-24-9-19-5-31-6-27-3-14-1h-34l-36 2-39 5-35 6-36 8-35 9-40 12-36 12-36 13-37 15-35 15-36 17-25 12-17 9-46 23-22 12-24 14-28 16-24 14-19 12-24 15-19 12-25 16-16 11-20 14-17 12-16 11-18 13-19 14-18 14-28 21-2 3 7 17 5 16 2 13 1 14-2 16-5 11-6 8-8 7-10 4h-19v-1l-16-1 3-3h20l13-2 11-6 8-10v-26l-2-5-2-1v-2l-4-2 2-4h5v-17l-3-10-2-12v-6l-4-2-1-4h3l2-4 18-13 26-20 16-12 23-16 16-11 17-12 16-11 20-14 22-14 19-12 25-16 19-12 24-14 25-14 46-26 47-24 15-8 16-8 25-12 36-16 43-18 26-10 30-11 47-16 30-9 38-10 38-8 30-5 29-4 23-2z" fill="#06040C"/>
<path transform="translate(227,1093)" d="m0 0 2 2-9 16-15 25-14 26-12 22-11 23-8 16-13 28-16 39-7 19-13 40-6 22-6 25-6 32-4 34-1 12v22l3 36 4 24 7 25 10 24 10 18 12 16 9 10 14 14 16 12 19 11 19 9 22 8 24 6 26 5 39 4h31l45-3 38-5 39-7 40-9 43-12 55-18 32-12 28-11 54-23 37-17 20-10 19-10 36-18 22-12 18-10 19-11 23-13 24-14 17-11 19-12 17-11 25-16 21-14 18-13 11-7 18-13 19-13 18-13 19-14 18-14 11-8 21-16 16-12 13-11 33-27 13-11 10-8 13-11 8-7 11-10 8-7 12-11 11-9 10-10-7-2 1-2 5-1 8 5-1 5-4 2-2 4-9 8h-2l-1 3-8 6-5 5-11 10-6 5v2h-2l-1 3-9 7-13 11-12 10-11 9-12 10-11 9-8 7-13 10-11 9-17 13-9 7-12 9-26 20-12 9-19 14-12 8-20 14-23 16-16 11-15 10-19 12-23 15-18 11-19 12-15 9-23 13-42 24-22 12-17 9-68 34-24 11-32 14-38 16-40 15-56 19-45 13-50 12-35 7-37 5-33 3-18 1h-37l-36-4-27-5-31-9-25-10-23-12-12-8-11-9-10-9-9-9-11-14-9-12-10-18-9-20-7-23-6-29-2-17v-60l2-19 7-41 10-40 12-39 11-30 11-28 13-29 11-24 8-16 13-25 10-19 7-12 12-19 9-15 5-5 3-4z" fill="#05040C"/>
<path transform="translate(769,162)" d="m0 0h2l7 34 7 23 8 16 6 9 9 10 10 7 16 8 18 6 26 6 14 4 1 2-17 2-32 8-20 8-10 6-10 9-8 9-7 12-9 25-7 29-2 14-2-1-11-46-7-19-6-11-7-9-11-11-16-9-20-7-15-4-17-4-11-2 2-2 43-11 16-6 17-9 12-11 9-13 6-12 7-21 7-30z" fill="#040720"/>
<path transform="translate(1477,753)" d="m0 0h19l10 2 12 5 9 7 6 8 5 12 1 6v9l-2 10-5 12-6 9-9 10-8 6-12 6-11 4-10 1h-9l-15-2-11-4-11-8-7-10-4-12v-17l3-12 8-15 12-12 14-9 11-4z" fill="#030620"/>
<path transform="translate(1019,613)" d="m0 0h1l-1 9-10 30-9 22-14 34-15 38-9 24-12 36-8 25-26-2-35-5-5-1 1-5 15-27 29-49 13-21 9-14 22-33 12-17 14-17 11-12 11-10z" fill="#FEB92D"/>
<path transform="translate(856,1227)" d="m0 0h2l5 25 6 18 7 14 9 10 15 8 20 7 14 3 12 1 1 2-42 12-11 5-8 5-5 4-9 13-5 12-5 16-4 20-2 2-2-2-6-26-5-15-7-13-9-10-9-6-11-5-12-4-25-6-2-1v-2l22-5 21-7 14-7 9-8 9-16 7-21 5-21z" fill="#030620"/>
<path transform="translate(1197,334)" d="m0 0h34l19 2 21 5 5 2-1 3h-6l-4-4h-13l-16-3h-13l-19 1-12 1-5 2-15 3-14 5-5 1-7 3-12 4-7 2-9 4-7 3-5 1-1 2-9 4-7 4-8 2-2-1-2 5-5 1-2 3-5 1-3-1v4l3 1-1 3-4-1v-2l-10 5-6 2-3 5h-2v2l-7 1-5 5-2 4-12 3-3 6-4 1v4l-4 1-4 4h-3l-1 5-4 5-8 7h-2l-2 5h-2l-1 5h-3l-3 3h-2v3l-4 1-1 3-2-1v-2l-7 2-6 7 1 2 3-1-1 4-3 6-3 8h-2l-1 3-4-1 1 3-3 2-1-1-2 3-5 2-4 6-5 5h-2l-2 4-7 8-1 3-4 1-6 4 1 3-2 1-3 5-5 6-1 5h-2l-2 5-5 7-3 5-4 6h-2l-1 4-1 2h-2l-2 5-6 11-3 5-3 1-2 6-1 6-2 1-2 2h-3l1 3h-2l-1 4-3 5h-2l1 3-5 4h-2l-1 4-7 12-5 8h-2l-2 6-9 15-2 4h-2l-1 4-5 10-10 17-5 7-2 4-6-1v2h-3v3h-2l-2 4-4 2 1-6 14-25 20-35 17-28 15-24 22-33 11-16 28-38 10-12 11-14 11-13 13-15 12-13 4-5 4-4h2l2-4h2l2-4 15-14 14-13 11-9 12-10 18-13 23-15 15-9 27-14 25-10 31-9 29-6z" fill="#03020B"/>
<path transform="translate(1706,105)" d="m0 0 2 2 8 32 6 16 6 10 6 7 11 7 14 6 19 5 17 3 1 2-35 9-15 6-10 6-9 10-8 15-5 16-6 24-2 2-2-1-2-15-6-21-7-16-7-9-9-8-13-6-15-5-16-4-10-3v-2l20-4 20-6 14-7 9-7 9-13 7-17 6-24z" fill="#030620"/>
<path transform="translate(1503,612)" d="m0 0h43l24 3 21 5 19 7 19 10 12 9 10 9 11 12 11 15 9 16 7 16 5 21-1 2-1-3h-2v-4l-5-2-2-3-2-6-3-4-2-11h-2l-3-4 1 7-1 3 1 3-6 2-5-12-6-11-9-12-1-4 1 2 4 2 1 2 3 2-1-3v-2h2l2 2 2-4-1-3h-2l-6-8-3-3v-3h-2l-7-8-5-4v-2l-5-2-11-7-8-5-5-2-4-2h-7l-8-3-15-1-2-2-11-2h-47l-18 1-10 3-7 1-8 3-12 2-4 2-7 2-9 3-14 7-6 2-7 3-3 3-16 8-10 4-6 3-9 6h-3v2l-4 4-1 5-6 1-10 10-7 8-5 4-1 3v6l-2 3h-2l-1 3-4 1-1 5-2 4-4 4-1 2-6 2 1-3h2l2-5 1-2h2l-1-2h-3l-1 2h-2l-2 6-3 5-2 1v3l4-3 2 1-1 5h-2l-2 4-3 4-3 7-5 5-5 9-3 4-1 4-5 2-3-2-6 9-5 15v3l-3 11-5 5 1 3-2 4-3 3-1 4 2 1-4 4v6l1 7-5 5-6 7-6 11h-2l-2 4h-2l-2 4-4 4h-2l-2 4-12 6-14 5h-9l-7 1h-16l-9-3v-2l6 1h11l22-4 12-4 16-9 8-7 10-14 14-42 11-26 8-16 9-17 10-15 11-16 13-16 12-14 7-8 6-5 14-14 14-11 13-10 21-13 23-12 27-10 28-7 23-4z" fill="#03020C"/>
<path transform="translate(817,929)" d="m0 0h16l9 3 19 1 9 4h11l3 1 15 2 15 1 3 2-1 3h-10l-41-5-35-6-15-3-2 5-13 23-14 25-9 16-11 17-11 18-8 12-13 18-14 19-7 9-9 11-13 15-12 14-36 36-11 9-13 11-18 13-19 12-16 9-25 12-3-1 4-3 5-2 5-4 8-6 3-5 9-6h3v-2l13-8 5-4 7-4 5-4 6-2v-2l5-4 2-8 6-5h2l1-3 4-2 9-9 5-4h2v-2h2v-2h2l2-4 13-13 1-2h2l2-4 7-7 1-2h2v-2h2l2-4 6-8 5-5 6-7 2-4 4-4 6-8 3-5 5-8v-3h4l1-4 3-6h2v-2h2l1-5h3l1-4 2-3h2l1-3v2h2v4l5-5 1-7 2-4h2l-1-7 6-1 4-4 6-7 8-14 4-8 5-16 5-9h2v-2h2l2-4 3-5h2l2-4 6-4z" fill="#03020B"/>
<path transform="translate(1328,1212)" d="m0 0 1 4h-2l1 4-20 18-8 7-15 13-14 11-14 12-22 18-17 14-14 11-21 16-44 33-19 14-20 14-23 16-13 9-19 13-11 8-22 14-31 20-41 26-23 13-21 12-26 15-22 12-33 17-19 10-40 20-20 9-25 11-38 16-41 16-37 13-37 12-47 13-40 9-17 3h-11v-1l29-5 18-4 44-11 11-3 1-2 5-2 5-1 6-3h2v2l5-1 1-3 13-2 5-4h7v-2l6-2 5 1v-2h2l1-3 30-11 21-8 10-4 29-12 18-7 14-7 22-10 19-10 25-12 25-13 16-8 24-13 11-7 8-4 13-8 12-6 13-8 18-10 19-12 15-10 10-6 9-6 5-3h2v-2l16-10 7-4h2v-2l10-6 14-10 12-8 28-20 12-8 8-6 8-5 3-3 9-6 8-6 13-10 11-8 13-10 9-7 6-4 16-12 10-8 14-11 11-9 5-5 3-1 5-5 10-9 11-9h2l1-3 10-8 4-3h2v-2l8-6 5-5 9-7 5-6 7-6h2v-2z" fill="#FEC83A"/>
<path transform="translate(1481,773)" d="m0 0h12l12 3 8 5 4 7 1 2v14l-4 11-8 11-8 7-10 5-7 2h-20l-10-3-7-5-4-7-1-4v-11l4-12 8-11 9-7 12-5z" fill="#FEB92D"/>
<path transform="translate(397,1508)" d="m0 0h2l2 15 6 18 7 12 9 7 10 5 24 6 5 2v2l-23 4-12 5-10 6-6 7-7 14-5 20-1 6h-2l-7-24-4-10-7-11-8-6-13-6-18-4-7-1v-3l26-7 12-5 9-7 7-12z" fill="#03020C"/>
<path transform="translate(1230,1069)" d="m0 0 3 3-7 12-12 16-14 19-7 7-7 8-17 17-11 9-13 10-15 10-19 10-21 8-21 5-18 2h-29l-17-3-16-6-12-6-13-10-14-14-9-13-11-21-6-15-2-9 4 1 4 8 3 3 4 5 2 5 9 17 3 5 8 8v2l3 1v3l3 1 7 8 13 10 5 4 14 5 15 3 17 2h32l14-2 10-5 11-6 9-5 4-1v-2h2v-2l5-1v-2l10-6 1-2h2l1-3 9-5 3-3h2l-1-7 3-1 2-4 5-4h2l1-3 8-7 7-7 2-3h2l1-4h2v-2h2l2-4 9-11 1-3 5-5 6-7 2-4 4-1 1-2z" fill="#03020C"/>
<path transform="translate(1e3 615)" d="m0 0h7l3 3-11 9-9 9-9 11-11 14-13 19-16 24-11 17-14 23-12 20-13 22-14 25-2 3h-2l1-15-2-2-4-2 2-2 5 1-2-7 8-13 1-6h2l1-6 4-1v-6l2 1 9-14 8-14 10-17 10-15 12-17 3-5h2l2-5 9-13 12-16 7-9h2l2-4 6-3 8-1 2-4z" fill="#03020B"/>
<path transform="translate(514,725)" d="m0 0 7 2 2 2 7 2 5 6v2h2l10 16 3 4 2 5 7 8 10 14 4 5v2l4 2 5 6 5 5 2 5 4 2 9 8 4 2 3 3 8 6v2l4 2 11 7 12 9 6 7 12 9 1 2-3 1-16-9-18-13-19-14-20-18-10-10-5-4-7-8-14-17-10-13-17-28-4-6-7 6-21 21-3 4h-2l-2 4-12 12-7 8-12 13-7 8-9 10-9 11-9 10-7 8-2 3-10-2 6-7 7-8 10-11 9-11 12-13 12-14 7-8 9-10 10-10 2-4v3l8-7 6-7 4-4h2l2-4z" fill="#04030C"/>
<path transform="translate(1021,613)" d="m0 0 3 1 2 4-3 8-3 15-2 5-3 11-5 16-3 5-1 9-4 10-4 19-2-1-3 8h-2l1 3-2 13-3 5-5 16-3 1-1 9-2 5h-2l1 5-3 5-4 8-1 7-2 4h-2l-1 8h-2v2l-8 6-2 5h-2l-1 8-4 2-17-1-2-1v-2h-10l-3-2 5-1 24 2 2 1 3-12 8-25 13-38 8-20 11-28 10-25 6-13 13-35 6-21z" fill="#03020B"/>
<path transform="translate(1608,930)" d="m0 0h2l-2 4-9 10-9 11-9 10-9 4-23 5-15 2-15 1h-20l-24-2-20-4-17-6-13-7-5-4v-2l11 2 21 5 15 2 14 1h30l20-2 26-6 18-6 20-9z" fill="#FEB92D"/>
<path transform="translate(234,1101)" d="m0 0h2l6 9 4 10 9 16 3 4 4 7 2 5 6 4 4 10 8 10v2l3 1 8 10 9 8 15 9 3 3 10 5v2l6 2 10 6 9 4 13 4 7 2 9 2 11 2 10 3 14 4 18-1 24 2 7 2-1 2 6 1v1h-21l-36-3-26-4-28-7-21-8-22-12-15-10-9-7-13-12-10-10-11-14-9-14-11-21-7-19-1-5z" fill="#03020C"/>
<path transform="translate(392,1543)" d="m0 0 7 1 8 11 4 5 12 8 2 2-1 5-7 6-4 4-8 7-5 7h-2v2l-5 2-8-9-5-5-11-9-5-5 1-4 6-8 1-1-9 4h-2v-2l12-6 5-4 2 1v2l3-1 2-4z" fill="#030620"/>
<path transform="translate(641,1462)" d="m0 0h2l4 16 4 9 7 8 8 4 13 4 6 2v2l-16 4-12 6-6 7-4 9-4 16h-2l-5-19-6-10-6-5-9-4-16-4 1-3 15-4 12-6 6-7 5-12z" fill="#03020C"/>
<path transform="translate(1409,417)" d="m0 0h2l4 17 6 12 8 6 15 5 7 2-1 2-12 3-14 7-5 6-4 8-3 12-1 6h-2l-6-20-6-10-10-6-14-5-5-1v-2l16-5 12-6 7-12z" fill="#03020C"/>
<path transform="translate(1409,197)" d="m0 0h2l4 17 6 12 9 6 11 4 10 2-1 3-15 4-11 6-5 6-5 10-3 15h-2l-7-21-6-8-8-6-11-4-9-2v-2l17-5 9-5 6-7 5-12z" fill="#03020C"/>
<path transform="translate(252,1319)" d="m0 0 2 2 4 16 5 9 7 6 16 6 9 3-1 2-13 2-16 8-6 10-4 10-2 8h-2l-6-18-6-9-5-4-11-5-13-2v-2l19-7 9-5 6-9 5-13z" fill="#03020C"/>
<path transform="translate(1706,105)" d="m0 0 2 2 8 32 6 16 6 10 6 7 11 7 14 6 19 5 17 3 1 2-35 9-15 6-10 6-2 1 1-5 4-3h2l2-4 9-9v-7h-2l-5-6-12-6-8-6-7-8-5-6-3-3h-6l-2 5-9 8-11 8-2-1 2-3h2v-5l7-10 7-17 6-24z" fill="#03020C"/>
<path transform="translate(1908,355)" d="m0 0h1v11l-6 36-8 34-12 40-9 26-16 40-16 36-17 35-13 25-10 18-14 25-17 28-9 14-10 16-19 29-9 13-10 14-13 18-12 18-3 3 1-4 6-19h4l3-1 1-2h2l2-5 10-14 15-22 4-5 4-7 5-11h2l2-6 9-13 3-7h2l2-5 4-5 8-15 3-4 6-10 4-5 2-4h2l-1-3 3-5 8-16 5-8h2v-4h3l-1-3 6-9 4-10h2l2-6 8-17 7-14 5-13 1-7 2-5 2 2 5-13v-3l1-4 4-11 2 1 2-4v-7l3-4 1 2 7-20 2-7-1-2 2-3 2-2 6-21 2-5 3-12 2-10 2-6 2-10 3-7 1-13 3-13v-8l1-3-2-1h2v-7z" fill="#FEC638"/>
<path transform="translate(888,1297)" d="m0 0 6 2 14 6 17 5 9 2 12 1 1 2-42 12-11 5-8 5-5 4-9 13-5 12-5 16-4 20-2 2-2-2-6-26-5-15-7-13-9-10-9-6-6-3-1-4 6 1 8 3 8 6 12 16 8 16 4 1 6-12 8-12 10-11 6-3h2l2-4 8-7 5-3-1-6-6-3-1-5-3 1-4-2z" fill="#03020C"/>
<path transform="translate(1674,175)" d="m0 0 2 1v3l-6 7-10 6-2 2 1 5 6 5 9 3 6 4v2l5 2 9 12 8 8 1 8h5l2-4 3-7 8-8 6-1v3l-8 15-5 16-6 24-2 2-2-1-2-15-6-21-7-16-7-9-9-8-13-6-15-5-16-4-10-3v-2l20-4 20-6 14-7z" fill="#03020C"/>
<path transform="translate(1589,935)" d="m0 0h6l-3 3v3l-17 8-21 7-23 5-20 2h-30l-21-2-18-3-19-5h-4l-1-4 5-1 13 2 17 4 14 2 27-1 26-3 11-2v-2h9l13-3 9-1 11-4 9-3z" fill="#03020C"/>
<path transform="translate(1163,337)" d="m0 0h5l-1 2-26 6-29 9-25 11-25 13-22 14-16 11-19 14-15 13-14 12-12 12-7 6-5 6-6 5-7 8-12 13-9 11-8 9-7 9h-2l2-4 6-8h2l2-5 8-11 2-3h2l3-6h2l1-2 5-3 1-4 7-8 8-10h2v-2h2l2-4h2v-2l7-6h2l1-3 5-2 2-4 3-3h2v-2l10-8 14-12 16-12 7-4 11-8 13-8 10-6 14-8 16-7 7-3 7-1 3 1v-3l15-6 2 1v1l30-8z" fill="#FEC83A"/>
<path transform="translate(1237,1071)" d="m0 0 5 2 4 6 2 5 8 11 7 11 11 16 4 4 1 5h2l3 6 5 5 8 10 7 7 8 5 6 4 6 3 14 9 7 4 3 5-4 1-25-12-12-8-13-10-10-9-7-8-10-12-10-15-10-17-11-24z" fill="#03020C"/>
<path transform="translate(1345,492)" d="m0 0h4l1 3-5 22-7 21-10 20-8 12-11 14-10 9-13 9-17 7-8-1 3-3 6-4 5-2 3-1v-2l11-8 5-3h2l1-3 3-1 1-4-1-3 3-5h2v-2l6-3 4-5 5-5 7-9 4-9 1-18 6-6 3-13 3-6z" fill="#03020B"/>
<path transform="translate(656,877)" d="m0 0 2 1 1 5-3 5-7 5h-2l-2 4-7 6h-2v2l-8 5-5 5-10 6-9 3-4 1-2 4-10 5-15 6-12 3-40 3h-13l-7-1-9-3-15-4-2-4 17 4 14 2h23l21-3 19-5 25-10 13-7 14-9 12-9 11-9z" fill="#03020B"/>
<path transform="translate(1269,186)" d="m0 0 4 1-10 5-24 11-16 8-17 9-32 16-22 12-16 8-6 4-12 6-8 5-14 9-10 5-14 8-17 11-9 5-7 5h-2v2l-10 5-2 3-8 3-10 7-11 6-11 7-10 7-8 6-8 5-3 1v2l-9 5-3 1v2l-10 6-3 3-11 7-14 10-1 2-6 3-8 5-14 10-7 6-10 7-13 10-11 8-12 9-5 2v5l-4 2-1-4 9-8 11-8 42-32 34-24 16-11 18-13 39-26 19-12 16-10 19-12 24-15 28-16 26-15 28-16 27-14 24-12 19-10 24-12 28-13z" fill="#FEC739"/>
<path transform="translate(547,1246)" d="m0 0 5 2 14 6 16 3v2l-23 7-11 6-7 8-6 15-4 16h-2l-4-16-5-13-6-8-9-6-14-5-12-4-1-2 16-3 11-4 1 3-3 3-1 5 5 2 10 6 7 4 4 6h4l2-4 11-11 8-2-1-6-3-5-2-4z" fill="#03020C"/>
<path transform="translate(218,1112)" d="m0 0h2l-2 5-5 10-6 10-4 7-3 8-6 14-8 10-3 6-5 9-1 7-3 5-5 12h-2l-1 7-3 8h-2v2h-2l-1 5-3 4-3 7-6 12-2 7-3 5-2 5-2 9-1 2h-2l-3 9-3 12h-2l-2 12h-2l-2 12h-2l-1 11-4 8-1 8h-2v11l-2 5h-2l-1 8 1 2-3 6-2 6-2 11-2 2v-10l6-26 5-19 11-35 11-31 14-34 15-33 17-35 13-25 13-23 9-16z" fill="#FEC739"/>
<path transform="translate(815,932)" d="m0 0 10 1v2h-6l-5 5-5 9-2 3 1 3-1 2-3 1-3 5v3h-2l-2 4-5 9 1 2-4 2-2 5-9 16-8 12-5 9-5 7v5l-4 4-2-1-2 5-9 13-7 10-10 13-8 12-7 8h-2l-2 5h-2v2h-2l-2 4-3 4h-2l-1 4-5 5-3 5h-2l-2 4h-2l-2 4h-2l-2 4h-2v2l-8 7-5 6-8 7-5 6h-2l-2 4h-2v2l-10 6-5 5-7 5-2 2-9 6-3 1-2 4-5 2-11 7-17 10-13 6-1-2 23-12 19-12 14-10 14-11 15-13 8-7 33-33 9-11 13-15 11-13 10-14 14-19 13-19 13-21 14-22 13-24 13-23z" fill="#FEC638"/>
<path transform="translate(813,467)" d="m0 0 2 1 7 17 5 16 2 13 1 14-2 16-5 11-6 8-8 7-10 4h-19v-1l-16-1 3-3h20l13-2 11-6 8-10v-26l-2-5-2-1v-2l-4-2 2-4h5v-17l-3-10-2-12z" fill="#03020C"/>
<path transform="translate(1623,919)" d="m0 0h3l-2 4-8 11-9 11-1 4-4 2-9 10-5 5-14 8-7 2-12 2-7 2h-14l-7 1-13-1h-25l-19-3v-2l5-1 24 2h20l24-2 25-5 11-4 6-5 9-11 10-11 5-6 5-5 5-6z" fill="#03020B"/>
<path transform="translate(1233,1070)" d="m0 0h2l13 29 8 14 8 12 9 12 9 10 6 7 11 9 14 10 8 5v3l-5-2-8-4-4-1v-2l-5-1-9-9-4-5v-2l-4-2-1-3-3-1-3-3v-4h-2l-9-12-7-7-3-6v-2h-2l-2-4v-4l-2-1-6-12v-3h-2l-2-7-6-5v4l-4 1-11 17-7 8-4 7-4 4h-2l-1 4-5 5h-2l-2 4-6 7-7 6-14 14-5 3-4 4-7 4-12 8-11 6-1-2 13-8 17-12 11-9 13-12 4-4h2l2-4 15-16 14-19 13-18z" fill="#FEC639"/>
<path transform="translate(1767,101)" d="m0 0 7 1 22 9 20 10 12 8 12 9 13 12 13 13 13 18 9 16 9 20 3 9v6l-2-4-4-10v-3h-2l-2-8h-2v-3l-2-1v-4h-2l-2-7-5-4-2-5-2 3-4-6v-2h2l-5-6-6-8v-2h-2v-2h-2l-1 2v-2l-4-1-23-23v-2h-2l-2-3-4-1v-2l-4-1-7-3-9-6-20-9-4-2-5-2-4-2z" fill="#FEC739"/>
<path transform="translate(1201,597)" d="m0 0 6 1-3 1-2 4-10 11-9 15-8 16-7 15-10 27-10 32-3 11h-2l-1-2v-9l3-8 3-9 4-17 1-2h3l1-10 2-7 3-6h2l1-5 10-20 5-17v-8l8-4 8-7z" fill="#03020C"/>
<path transform="translate(1296,356)" d="m0 0h5l13 10 8 8 11 15 9 17 5 14 3 13v2l-4 2-5-6-4-12-7-14-4-4-4-14-5-10-4-4v-3h-2l-4-4-6-3v-2l-4-2z" fill="#03020C"/>
<path transform="translate(856,1227)" d="m0 0h2l5 25 6 18 7 14 1 1v5l-4-2-9-10-5-8-3-6-3-1-2 8-3 3-3 8-4 3h-2l-1 3-2-1 5-8 4-10 1-6 6-21z" fill="#03020C"/>
<path transform="translate(92,1535)" d="m0 0h1l5 25 5 18 8 20v2l3 1 2 5 6 10 7 12 7 9 5 5 9 10 7 7 9 7v2h2v2h2v2l4-1 8 7 8 5h3l2 2 1 2 7 2 21 9 24 7 18 4v1h-9l-24-6-22-8-25-12-17-11-14-11-20-20-12-16-10-17-9-20-7-21-5-23z" fill="#FEC739"/>
<path transform="translate(519,730)" d="m0 0 5 5 10 17-1 3-8-12-4-4-7-1-5 6-6 5-7 8-3 5h-2l-2 4h-2l-2 5-4 5h-2v2h-2l-2 4-8 9-7 9-2 3h-2l-1 3-9 9-1 3-3 1-7 8-8 7-1 2h-2l-2 4-6 5 1 5v3h-3l-4-2 2-5 12-13 9-11 11-12 7-8 12-14 8-8 7-8 8-8 7-8z" fill="#FEC83A"/>
<path transform="translate(882,542)" d="m0 0h2l-1 4-12 16-13 18-11 16-22 33-16 26-13 21-13 23-8 14-13 23h-2l2-6 13-23 5-8 6-12 8-13 10-16v-2l2-2 2-1 2-5 11-19 5-8 1-5h2l1-4h2l2-5 6-9h2l2-6 8-10 2-2 3-5 4-5 2-4 7-8 4-6 2-2z" fill="#FEC739"/>
<path transform="translate(649,865)" d="m0 0 5 2 7 4-1 4-12 11-11 9-13 10-22 14-17 8-19 7-11 3h-6l2-2 21-6 7-3 7-5 8-3 15-10 10-7 15-12h3l2-4 10-8 1-2v-6z" fill="#FEC83A"/>
<path transform="translate(988,643)" d="m0 0 3 1-6 8h-2l-1 4h-2l-2 5-10 14-20 30-9 14-7 11-2 8-5 4v5l-4 5-1 3-4 1-7 13-9 14-6 11-7 12-4 8-1 4-1 2 5 2 11 2v1h-10l-11-2 1-5 15-27 29-49 13-21 9-14 22-33 12-17z" fill="#FEC638"/>
<path transform="translate(750,571)" d="m0 0h6l3 2v2l-12 4-11 7-9 10-8 15-3 11-2-1-1-6 3-4-1-2v-10l-4-1-1-4 3-1 2-4 4-1 10-10 8-1v-2z" fill="#03020C"/>
<path transform="translate(1515,782)" d="m0 0h2l4 4 2 10v8l1 9-5 14-5 5-9 3-9 5-7 2-4 1-6-1v1l-8 1-6-2 2-2 14-1 12-4 10-7 7-8 6-12 1-4v-14l-2-7z" fill="#03020B"/>
<path transform="translate(1472,767)" d="m0 0h23l6 5-1 3-7-1h-12l-15 4-9 5-7 6-7 11h-2v-13l6-8 3-2h3v-2l4-1v-2z" fill="#03020C"/>
<path transform="translate(811,1302)" d="m0 0 3 1 4-1-8 8-5 3v6l5 5-4 2-36-9-2-1v-2l22-5z" fill="#03020C"/>
<path transform="translate(419,860)" d="m0 0 4 3v2h3l3 9 3 20 4 9 6 9 11 10 8 5v2l-7-1-15-9-7-8-5-10-4-11-1-21z" fill="#03020C"/>
<path transform="translate(983,431)" d="m0 0 1 2-3 5-8 7-9 9-7 6-5 6-6 5-7 8-12 13-9 11-8 9-7 9h-2l2-4 6-8h2l2-5 8-11 2-3h2l3-6h2l1-2 5-3 1-4 7-8 8-10h2v-2h2l2-4h2v-2l7-6h2l1-3 5-2 2-4 4-2z" fill="#FEC639"/>
<path transform="translate(1465,617)" d="m0 0 4 1-21 6-21 7-18 8-22 12-18 12-14 11-13 11-8 7-6 7-5 5-3 1 2-4 16-16h2l1-3 11-9h2l1-4 5-5 9-5 5-5 8-4 4-4 7-3 2-2 6-2 4-3 16-6 9-4 19-5 7-2z" fill="#FEC73A"/>
<path transform="translate(919,1102)" d="m0 0 2 1 6 19 8 18 8 15 10 13 13 13 13 9 6 4v2l-5-1-8-3-4-2v-2h-2v-2l-4-1-5-5-2-4h-2l-1-4h-2l-4-7v-2h-2l-5-5-3-8-8-16-7-20-2-7-1-3z" fill="#FEC639"/>
<path transform="translate(1696,139)" d="m0 0h1l-1 8-7 14-8 10-10 7-12 6-16 5h-7l3-2 14-7 9-4 8-4 6-7h2l2-4 6-9h2l2-5 2 2z" fill="#FEC83A"/>
<path transform="translate(1269,186)" d="m0 0 4 1-10 5-24 11-16 8-17 9-32 16-22 12-16 8-6 4-12 6-8 5-5 2 1-3 25-14 19-11 44-22 19-10 24-12 28-13z" fill="#FEC538"/>
<path transform="translate(793,1324)" d="m0 0 14 2 16 8 8 7 6 7 8 16 1 7-4-2-2-5-3-3-3-5v-2h-2l-6-8-13-10v-2l-14-7-6-2z" fill="#FEC83A"/>
<path transform="translate(908,1325)" d="m0 0h5l-3 2-13 5-10 6-5 5-2 3 1 2-5 11-4 9-4 8v7l-3 7-5 2 1-10 5-16 5-12 7-10 5-6 9-6 10-5z" fill="#FEC739"/>
<path transform="translate(543,769)" d="m0 0 3 1 11 14 18 21 8 7 11 11 8 7 17 13 7 5-1 3-16-10-3-1v-2l-5-2-2-4-3-1-4-4v-2l-4-2-2-4-2-1-1-3-4-1-1-3h-2l-9-12-9-9v-2l-4-2-6-8-2-4h-2z" fill="#FEC638"/>
<path transform="translate(1350,494)" d="m0 0 3 3-1 5h-2l-2 12-6 20-7 16-9 15-8 12-6 7-5 5-13 10-10 6-10 4-3-1 15-7 10-7 13-11 13-17 9-16 8-17 7-23 3-15z" fill="#FEC538"/>
<path transform="translate(1860,526)" d="m0 0 2 2-1 7-11 25-11 24-12 25-14 27-2-4 8-14 2-6h2l2-6 8-17 7-14 5-13 1-7 2-5 2 2 5-13 3-9z" fill="#FEC437"/>
<path transform="translate(838,1272)" d="m0 0 2 3-1 5-6 9-8 7-14 7-21 7h-6l3-4 9-3 17-7 9-6 4-2v-2l7-6z" fill="#FEC83A"/>
<path transform="translate(574,1673)" d="m0 0 5 1 1 2-36 11-41 11-43 9-6 1h-11v-1l29-5 18-4 44-11 11-3 1-2 5-2 5-1 6-3h2v2l5-1 1-3z" fill="#FEC537"/>
<path transform="translate(1251,807)" d="m0 0h2l-1 5-10 26-9 29-7 11-8 9-10 7-13 7h-5l3-2 5-3 4-2 1-3 10-7 6-4 1-2h2l2-4 3-1 3-9 4-10 4-13 3-10 3-7 3-8z" fill="#FEC639"/>
<path transform="translate(249,1348)" d="m0 0 5 4 2 5-1 8-4 4-6-1-8-4-5-2v-5l7-2h3v-2h2v-2z" fill="#030620"/>
<path transform="translate(822,483)" d="m0 0 2 1 3 10 3 12 1 5v26l-3 13-6 11-6 7-10 6-7 2h-42l2-2 7-1h33l10-4 10-9 5-9 4-11 1-15-2-20-5-17z" fill="#FEC538"/>
<path transform="translate(1197,607)" d="m0 0 2 1-7 10-3 9-4 8-6 10-1 5h-3l1 3-5 12-4 2-1 10h-3v3h-2l1-7 9-22 9-19 11-18z" fill="#FEC739"/>
<path transform="translate(345,1578)" d="m0 0h9l12 5 10 6 7 9 6 12 1 9-3 2-2-1-3-10-4-9v-3l-4-2-3-3-3-2v-2l-14-7-1-1-7-1z" fill="#FEC739"/>
<path transform="translate(827,619)" d="m0 0 2 1-1 4-14 23-15 24-12 21-9 16-10 17-6 11h-2l2-6 13-23 5-8 6-12 8-13 10-16v-2l2-2 2-1 2-5 11-19 5-7z" fill="#FEC537"/>
<path transform="translate(388,1531)" d="m0 0h1l-1 7-6 12-6 7-8 5-17 6-12 3h-6l4-2 13-4 3-3 14-7 5-3h2l2-4 7-10 2 1z" fill="#FEC739"/>
<path transform="translate(1019,613)" d="m0 0h1l-1 9-10 30-18 44h-2l1-7 4-9 10-24 2-7 4-10 2-4v-8l-2-6z" fill="#FEC538"/>
<path transform="translate(1651,204)" d="m0 0 6 1 12 5 9 6 8 8 8 14 2 5v6l-2-2-5-12-3-4v-3h-3l1 4-5-5v-2l-4-2v-2l-4-2-9-7-5-3-7-3z" fill="#FEC739"/>
<path transform="translate(439,1578)" d="m0 0h7l-3 2v3l-4 1-4-2-12 6h-2l-1 3-4 2 1 4-5 9-5 10-2 6-4 3v-7l5-14 7-11 8-7 15-7z" fill="#FEC73A"/>
<path transform="translate(714,678)" d="m0 0h1l4 20 7 20 5 11-6-2-6-10-3-8-1-9-3-2 1-16z" fill="#03020C"/>
<path transform="translate(1608,930)" d="m0 0h2l-2 4-9 10-9 11-9 10-9 4h-6l3-2 10-4 6-7h2v-12l3-3 8-4z" fill="#FEC739"/>
<path transform="translate(1404,231)" d="m0 0 3 1-1 2 2 2 4-1 1 4-1 2v9l-2 2-5-1-4-4v-2h-2l-2-4 1-5 4-4z" fill="#030721"/>
<path transform="translate(752,576)" d="m0 0 4 1-12 6-6 5h-2l-2 4-3 5-3 6-8 18-2 1-2 3v-7l4-11 6-11 10-11 11-7z" fill="#FEC83A"/>
<path transform="translate(229,1094)" d="m0 0 2 2 6 21 7 17 7 14-1 4-4-5-2-6h-2l-2-9-4-8-4-10-2-7-6 1v-6z" fill="#FEC638"/>
<path transform="translate(1732,219)" d="m0 0 3 1-3 6h-3l-3 6h2l-3 10-6 12-2 6-4 1 1-8 5-14 7-13z" fill="#FEC739"/>
<path transform="translate(1910,292)" d="m0 0h2l1 28-2 31-2 2v-17l-1-1v-13l1-29z" fill="#FEC639"/>
<path transform="translate(638,1494)" d="m0 0 2 1v4h2l-1 5-2 5 1 3h2l1 5-3 1-2-1v-4l-5-2-2-2-4-3 2-4 7-7z" fill="#030721"/>
<path transform="translate(1464,778)" d="m0 0 3 1-10 6-3 1v2h-2l-2 9-6 7 1 2h-3l1 10h1l1 8h-2l1 5h-2l-3-8v-11l4-12 8-11 9-7z" fill="#FEC538"/>
<path transform="translate(1662,667)" d="m0 0 5 2 7 8 4 9 4 5 2 5 2 4 6 18 1 8-2-1-4-13-8-18-9-15-8-10z" fill="#FEC739"/>
<path transform="translate(971,739)" d="m0 0 1 4-10 27-12 36h-3l2-9 3-7 8-24 6-17z" fill="#FEC537"/>
<path transform="translate(519,730)" d="m0 0 5 5 10 17-1 3-8-12-4-4-7-1-5 6-6 5-7 8-2 3h-3l2-4zm-29 30m-1 1m-2 1 2 1-2 1z" fill="#FEC739"/>
<path transform="translate(1512,810)" d="m0 0h3l-1 5-8 11-8 7-10 5h-6l14-7 2-2-3 1 2-4 5-6 7-6z" fill="#FEC739"/>
<path transform="translate(1163,337)" d="m0 0h5l-1 2-26 6-29 9-3 1 1-5 15-6 2 1v1l30-8z" fill="#FEC538"/>
<path transform="translate(295,1204)" d="m0 0h5l14 10 7 6 6 4 5 2 1 2-9-2v-2l-4-1-6-4-10-4-1-3-3-1-5-5z" fill="#FEC638"/>
<path transform="translate(1403,211)" d="m0 0h1l-1 7-5 8-7 6-9 4h-5l1-2 7-3-1-2 7-5h2l2-4 4-6 1 2 2-4z" fill="#FEC638"/>
<path transform="translate(635,1478)" d="m0 0h1l-1 7-4 6-7 6-12 5-9 1 4-2 8-2-1-3 11-7 3-1v-2l5-4z" fill="#FEC83A"/>
<path transform="translate(1324,565)" d="m0 0v3l-7 10-5 6-5 5-13 10-10 6-10 4-3-1 15-7 10-7 13-11 13-17z" fill="#FEC638"/>
<path transform="translate(1290,740)" d="m0 0 1 3-9 13-10 16-10 18-3 7h-2l1-5 10-19 6-10 8-12z" fill="#FEC437"/>
<path transform="translate(988,643)" d="m0 0 3 1-6 8h-2l-1 4h-2l-2 5-10 14-10 15-4 2 2-5 14-20 8-11z" fill="#FEC437"/>
<path transform="translate(1325,377)" d="m0 0 2 1v2h3l1 4h2l3 7 3 4v2l3 1 2 7h1l2 9 4 14v6l-2-1-4-17-8-18-9-15-3-4z" fill="#FEC638"/>
<path transform="translate(1403,431)" d="m0 0h1l-1 7-7 11-14 7h-5l2-2 5-1v-3l11-8 4-6 2-1z" fill="#FEC638"/>
<path transform="translate(1710,797)" d="m0 0 1 2-13 18-11 17-1-3 4-10 3-10h4l3-1 1-2h2l2-5z" fill="#FEC537"/>
<path transform="translate(559,1265)" d="m0 0 3 1-4 1-1 3-5 2-4 6-7 8-4 9-2 6h-1l1-9 5-12 8-9z" fill="#FEC638"/>
<path transform="translate(1251,807)" d="m0 0h2l-1 5-10 26-7 23-2-1 2-9 6-20 3-7 3-8z" fill="#FEC436"/>
<path transform="translate(1472,974)" d="m0 0 40 3-1 2-20 1-21-3v-2z" fill="#03020E"/>
<path transform="translate(92,1535)" d="m0 0h1l5 25 5 18 6 15v3h-2l-7-18-6-22-2-11z" fill="#FEC538"/>
<path transform="translate(1160,682)" d="m0 0 2 3h-2l-2 9-5 16-6 21-2 3v-8l11-36 3-7z" fill="#FEC537"/>
<path transform="translate(424,860)" d="m0 0 3 4 3 7 4 24 2 4h2l3 3 1 4-1 3 1 2-3-1-6-11-3-9-3-20-3-7z" fill="#FEC537"/>
<path transform="translate(496,1265)" d="m0 0 7 1 10 6 7 8 4 9-1 4-7-13-6-7-8-1v-2l-4-1z" fill="#FEC73A"/>
<path transform="translate(1594,642)" d="m0 0 5 1 6 1v2l7 2 4 2v2l5 2 5 1 2 5 4 2 8 8h-3l-9-8-16-10-17-8z" fill="#03020D"/>
<path transform="translate(509,1245)" d="m0 0 4 1-14 7-5 2h-10l2-4 5-2z" fill="#FEC538"/>
<path transform="translate(919,1102)" d="m0 0 2 1 6 19 8 18 1 4-4-2-4-8-7-20-2-7-1-3z" fill="#FEC537"/>
<path transform="translate(1711,118)" d="m0 0 2 3 5 19 4 8 4 10v2h2l1 5-3-1-8-16-6-20z" fill="#FEC639"/>
<path transform="translate(1019,613)" d="m0 0h1l-1 9-4 13-3-4-2-10z" fill="#FEC639"/>
<path transform="translate(1412,197)" d="m0 0 2 4 2 10 4 9 4 6 5 4 11 4 2 2-8-1-11-6-6-8-4-10-1-4z" fill="#FEC638"/>
<path transform="translate(986,1195)" d="m0 0 6 1 13 5 11 3 2 3-9-1-10-3-8-3-5-3z" fill="#FEC538"/>
<path transform="translate(402,1525)" d="m0 0 2 3 5 12v2h3v4l1 4 4 2 5 3 2 4-5-1-6-5-8-14-3-9z" fill="#FEC638"/>
<path transform="translate(236,1117)" d="m0 0 2 3 8 18 5 10-1 4-4-5-2-6h-2l-2-9-4-8z" fill="#FEC336"/>
<path transform="translate(427,1709)" d="m0 0h11l-2 2-29 4h-18v-1l26-3z" fill="#FEC538"/>
<path transform="translate(1412,417)" d="m0 0 2 4 2 10 4 9 2 3v3l16 8-4 1-8-4-6-5-6-12-2-7z" fill="#FEC638"/>
<path transform="translate(609,1510)" d="m0 0 9 1 9 5 7 8 1 6-3-3-5-7-8-5-5-1-5-2z" fill="#FEC538"/>
<path transform="translate(1233,610)" d="m0 0h32l-2 3-14 2-7-2-9-2z" fill="#FEC739"/>
<path transform="translate(676,404)" d="m0 0h34l5 1v2l-38-1z" fill="#03020D"/>
<path transform="translate(1352,673)" d="m0 0h2v2l-11 9-7 7-6 5-7 8-3 1 2-4 16-16h2l1-3z" fill="#FEC538"/>
<path transform="translate(1340,1190)" d="m0 0 12 2 4 2-5 5-4 2-2-5 1-2h-2v2l-3-1z" fill="#FEC639"/>
<path transform="translate(717,687)" d="m0 0 2 2 4 16 4 11 4 8 2 6h-2l-8-17-6-19z" fill="#FEC537"/>
<path transform="translate(905,946)" d="m0 0h12l-2 19-2 1-1-5 1-9-3 1-2-5h-3z" fill="#FEC437"/>
<path transform="translate(1732,219)" d="m0 0 3 1-3 6h-3l-3 6h2l-2 6-6 1 2-6 7-11z" fill="#FEC336"/>
<path transform="translate(881,824)" d="m0 0 12 1 14 2 2 2-4 1h-8l-18-4z" fill="#03020D"/>
<path transform="translate(1069,1202)" d="m0 0h7l-1 3-6 2h-14l-7-1 3-2z" fill="#FEC638"/>
<path transform="translate(919,947)" d="m0 0 1 2h2v8l-3 3-2 5h-1l-1-11 1-6z" fill="#03020C"/>
<path transform="translate(245,1334)" d="m0 0 1 4-6 10-5 4-8 4h-5l4-3 10-5v-2h3l1-4 1-2h2l1-5z" fill="#FEC538"/>
<path transform="translate(507,1243)" d="m0 0h6v3l-8 1-14 3h-5l1-2h3l1-3 4-1h10z" fill="#03020D"/>
<path transform="translate(864,1253)" d="m0 0 2 4 9 22 3 4v3h2l1 3-4-2-7-12-6-16z" fill="#FEC638"/>
<path transform="translate(1213,884)" d="m0 0m-2 1 2 1v2 3l-16 9-7 1 3-2 5-3 4-2 1-3z" fill="#FEC83A"/>
<path transform="translate(1156,1161)" d="m0 0m-2 1 2 1-10 9-11 7-11 6-1-2 13-8 17-12z" fill="#FEC537"/>
<path transform="translate(841,446)" d="m0 0m-2 1 2 1-5 5-12 9-5 2v5l-4 2-1-4 9-8 11-8z" fill="#FEC538"/>
<path transform="translate(1908,355)" d="m0 0h1v11l-2 10-2 3-1-1v-8l1-3-2-1h2v-7z" fill="#FEC73A"/>
<path transform="translate(96,1414)" d="m0 0 1 4-4 27-2 1v-11l3-19z" fill="#FEC538"/>
<path transform="translate(1101,1193)" d="m0 0h4l-1 2-6 5-3-2-4 2-4 3h-8l2-2 5-3z" fill="#FEC639"/>
<path transform="translate(512,737)" d="m0 0 2 1-5 6-6 5-7 8-2 3h-3l2-4zm-22 23m-1 1m-2 1 2 1-2 1z" fill="#FEC437"/>
<path transform="translate(218,1112)" d="m0 0h2l-2 5-5 10-6 10-5 6v-3l9-16z" fill="#FEC336"/>
<path transform="translate(766,389)" d="m0 0 2 1v2h3l1 9-1 8-2-1-4-18z" fill="#140F0F"/>
<path transform="translate(646,1472)" d="m0 0 2 4 4 9 4 6 2 1v2l9 3 5 3-3 1-9-4-8-7-5-9z" fill="#FEC638"/>
<path transform="translate(1690,806)" d="m0 0h3l1 3-3 12h-2l-2-2v-9z" fill="#03020C"/>
<path transform="translate(1888,203)" d="m0 0h3l8 20 1 9-2-4-4-10v-3h-2l-2-8h-2z" fill="#FEC537"/>
<path transform="translate(987,699)" d="m0 0 1 4-9 22h-3l4-10 2-6 2-3 2-6z" fill="#FEC436"/>
<path transform="translate(1431,466)" d="m0 0 2 1-5 4-7 6-5 12h-2l1-6 5-9 7-6z" fill="#FEC538"/>
<path transform="translate(1906,376)" d="m0 0 1 4-5 27h-1v-16l3-11z" fill="#FEC437"/>
<path transform="translate(1423,251)" d="m0 0h2l-2 5h-2l-2 6-2 4h-2l-2 18h-1v-14l4-10 6-8z" fill="#FEC538"/>
<path transform="translate(923,742)" d="m0 0h2v5l-4 5-1 3-6 1 2-5 4-7z" fill="#FEC73A"/>
<path transform="translate(552,1230)" d="m0 0 3 1-9 5-1 5 8 6 3 3-6-2-8-7-2-5z" fill="#FEC537"/>
<path transform="translate(581,925)" d="m0 0m-3 1 4 1-2 2-21 7-10 1 2-2 21-6z" fill="#FEC537"/>
<path transform="translate(1413,455)" d="m0 0 1 2 3 1v3l-7 6-2-1v-2l-2-1 3-5z" fill="#030721"/>
<path transform="translate(947,807)" d="m0 0h1l-1 9-5 15h-2l-1-3h2l1-8 3-10z" fill="#FEC537"/>
<path transform="translate(1900,233)" d="m0 0 3 3 1 4v7l-2 4-2-5-2-8 1-4z" fill="#FEC73A"/>
<path transform="translate(1232,605)" d="m0 0h8l12 3v1l-14 1-7-2z" fill="#03020C"/>
<path transform="translate(752,576)" d="m0 0 4 1-12 6-6 5-5 3-2 1 2-4 10-8z" fill="#FEC638"/>
<path transform="translate(430,1251)" d="m0 0h10l20 2v2h-11l-14-1v-2h-5z" fill="#FFCA3C"/>
<path transform="translate(1792,890)" d="m0 0 2 1 2 12-3 12h-1z" fill="#0C090F"/>
<path transform="translate(1383,466)" d="m0 0 6 1 9 6 4 6-1 4-5-8-10-6-3-1z" fill="#FEC638"/>
<path transform="translate(612,839)" d="m0 0 4 2 10 7-1 3-8-5-6-4z" fill="#FEC437"/>
<path transform="translate(1350,494)" d="m0 0 3 3-1 5h-2l-2 12-3 2 4-21z" fill="#FEC437"/>
<path transform="translate(1220,878)" d="m0 0 3 1-2 5-8 6-2-1 2-4 6-5z" fill="#FEC537"/>
<path transform="translate(637,1479)" d="m0 0 1 4-5 9-9 7-4 1v-2l9-6 4-5z" fill="#03051A"/>
<path transform="translate(879,817)" d="m0 0 4 4 14 3v1h-10l-11-2v-4z" fill="#FEC739"/>
<path transform="translate(1865,518)" d="m0 0 1 4-3 8-3-2-2 6h-2l-1 2 1-4 4-11 2 1z" fill="#FEC739"/>
<path transform="translate(822,483)" d="m0 0 2 1 3 10 3 12v5l-2-3-6-20z" fill="#FEC638"/>
<path transform="translate(675,1508)" d="m0 0h7v1l-11 3-10 4-5 4-3 3 1-4 6-5 11-5z" fill="#FEC537"/>
<path transform="translate(513,1274)" d="m0 0 4 2 6 10 1 7-3-3-5-10-4-5z" fill="#FEC537"/>
<path transform="translate(1390,249)" d="m0 0 4 1 7 8 3 6v5l-3-3-6-12z" fill="#FEC639"/>
<path transform="translate(184,1176)" d="m0 0 1 3-4 7-4 6-3 2 2-6 6-11z" fill="#FEC538"/>
<path transform="translate(1267,776)" d="m0 0h2l-2 5-8 16h-2l1-5 8-15z" fill="#FEC336"/>
<path transform="translate(1911,328)" d="m0 0h1v11l-1 12-2 2v-18z" fill="#FEC134"/>
<path transform="translate(1533,98)" d="m0 0h6v2l-17 3-9 2-1-2 12-3z" fill="#FEC639"/>
<path transform="translate(446,1569)" d="m0 0 8 1 8 3v2h-9l-3-3-4-2z" fill="#03051B"/>
<path transform="translate(930,730)" d="m0 0 1 4-1 4-9 6 2-5 5-8z" fill="#FEC437"/>
<path transform="translate(882,542)" d="m0 0h2l-1 4-10 13-2-3 5-6z" fill="#FEC538"/>
<path transform="translate(1401,452)" d="m0 0h5l-1 3h-2l-1 6-3 1-2-1 1-7z" fill="#030721"/>
<path transform="translate(1197,607)" d="m0 0 2 1-7 10-2 6h-4l2-5 8-11z" fill="#FEC437"/>
<path transform="translate(882,283)" d="m0 0 10 2 1 2-14 1-2-2z" fill="#1E1610"/>
<path transform="translate(278,1187)" d="m0 0 4 1 8 8-1 3-5-3-6-7z" fill="#FEC538"/>
<path transform="translate(1465,617)" d="m0 0 4 1-21 6-5 1v-2l10-3 7-2z" fill="#FEC537"/>
<path transform="translate(1310,392)" d="m0 0 5 2 7 6-2 1v4h-2l-7-11z" fill="#03020F"/>
<path transform="translate(1127,798)" d="m0 0 1 3-2 10-4-1 1-7z" fill="#03020E"/>
<path transform="translate(1464,778)" d="m0 0 3 1-10 6-3 1v2h-2l-2 4-4 3 2-4 6-7z" fill="#FEC436"/>
<path transform="translate(436,899)" d="m0 0h2l3 3 1 4-1 3 1 2-3-1-4-7z" fill="#FEC739"/>
<path transform="translate(1130,896)" d="m0 0 4 1 7 6 4 2-1 2-8-4-5-3z" fill="#03020C"/>
<path transform="translate(1006,624)" d="m0 0 2 1-7 7-2 4-8 6 2-4 7-8z" fill="#FEC436"/>
<path transform="translate(1412,417)" d="m0 0 2 4 2 10 2 5v3h-2l-4-12z" fill="#FEC73A"/>
<path transform="translate(1904,259)" d="m0 0 4 1v12l-2 1-2-10z" fill="#FEC739"/>
<path transform="translate(1732,219)" d="m0 0 3 1-3 6h-3l-2 4h-2l2-5z" fill="#FEC537"/>
<path transform="translate(1757,183)" d="m0 0 8 1 9 3 1 2-10-1-7-3z" fill="#FEC739"/>
<path transform="translate(934,1313)" d="m0 0h12l1 2-7 2-6-1z" fill="#030417"/>
<path transform="translate(282,1358)" d="m0 0 7 1 6 2-1 2h-11l2-1v-2l-3-1z" fill="#030416"/>
<path transform="translate(995,680)" d="m0 0h2l-3 9-3 7h-2l1-7 4-8z" fill="#FEC436"/>
<path transform="translate(378,1554)" d="m0 0 2 1zm-1 1m-1 1m-2 1 2 1 1 2-7 3-9 3v-2l12-6z" fill="#030519"/>
<path transform="translate(1209,215)" d="m0 0h2v2l-16 8-3-1z" fill="#FEC335"/>
<path transform="translate(654,283)" d="m0 0 5 1 3 3-3 1-11-2 2-2z" fill="#100D11"/>
<path transform="translate(896,526)" d="m0 0 1 2-7 9-3 4h-2l2-4 7-9z" fill="#FEC538"/>
<path transform="translate(1125,344)" d="m0 0 2 1 3 1v2l-9 2-2-3z" fill="#FEC93B"/>
<path transform="translate(556,1679)" d="m0 0 3 1h-3zm-5 1 4 1-1 3-8 2 2-4z" fill="#FEC436"/>
<path transform="translate(596,1205)" d="m0 0 3 1-10 7-5 3h-2v-2z" fill="#FEC739"/>
<path transform="translate(884,805)" d="m0 0 1 4-2 5-1 4h-4l2-6z" fill="#FEC336"/>
<path transform="translate(917,510)" d="m0 0h1v6l-4 1-2 4-2-1 3-6z" fill="#030721"/>
<path transform="translate(769,162)" d="m0 0h2l1 10-3 1-2-2z" fill="#19120F"/>
<path transform="translate(199,1688)" d="m0 0 4 1 10 5-4 1-10-5z" fill="#FEC73A"/>
<path transform="translate(650,1524)" d="m0 0h2l-1 5-3 9h-2l1-8z" fill="#FEC538"/>
<path transform="translate(626,1518)" d="m0 0 4 1 5 7-1 4-8-11z" fill="#FEC739"/>
<path transform="translate(216,1365)" d="m0 0h9l4 5-7-1-6-3z" fill="#FEC83B"/>
<path transform="translate(218,1358)" d="m0 0 4 1-4 1 1 3h-9v-2z" fill="#030415"/>
<path transform="translate(1824,609)" d="m0 0 1 4-6 9-1-2 3-8h2z" fill="#FEC638"/>
<path transform="translate(1286,369)" d="m0 0 5 2 9 7-2 2-9-7-3-2z" fill="#03020E"/>
<path transform="translate(1269,186)" d="m0 0 4 1-10 5-5 2-4-1z" fill="#FEC336"/>
<path transform="translate(1701,822)" d="m0 0h2l-1 5-7 6v-3z" fill="#13111B"/>
<path transform="translate(1738,756)" d="m0 0 1 3-7 11-2-3 4-5 3-5z" fill="#FEC437"/>
<path transform="translate(1831,597)" d="m0 0 1 2-6 12-2-3 5-9z" fill="#FEC336"/>
<path transform="translate(983,431)" d="m0 0 1 2-3 5-5 3 1-5h2l2-4z" fill="#FEC033"/>
<path transform="translate(704,404)" d="m0 0 11 1v2h-12z" fill="#0B080C"/>
<path transform="translate(1644,184)" d="m0 0 4 1-1 3-4 1h-7l3-2z" fill="#FEC639"/>
<path transform="translate(238,1349)" d="m0 0 2 2h-2v2l-9 4h-2v-2z" fill="#03051A"/>
<path transform="translate(771,1313)" d="m0 0h7l-2 1v3h-6l-2-1v-2z" fill="#030417"/>
<path transform="translate(529,1206)" d="m0 0h2l2 10-4 1-1-2z" fill="#030416"/>
<path transform="translate(730,730)" d="m0 0h2l4 8-5-1-2-6z" fill="#03020E"/>
<path transform="translate(1594,642)" d="m0 0 5 1 6 1v2l3 1v2l-6-2-8-4z" fill="#03030F"/>
<path transform="translate(1284,602)" d="m0 0h2v2l-8 4-7 1 1-2z" fill="#FEC739"/>
<path transform="translate(1877,477)" d="m0 0h3 1l-1 8-3 2v-5l-1-2z" fill="#FEC739"/>
<path transform="translate(507,1243)" d="m0 0h6v3l-13 1 2-2z" fill="#03030F"/>
<path transform="translate(1322,1236)" d="m0 0 2 1-4 6-1 3-4-2 1-3z" fill="#03020B"/>
<path transform="translate(1274,764)" d="m0 0 1 3-6 9-2-1 6-10z" fill="#FEC639"/>
<path transform="translate(754,745)" d="m0 0 1 3-4 8h-2v-5z" fill="#FEC437"/>
<path transform="translate(717,687)" d="m0 0 2 2 2 12h-2l-2-7z" fill="#FEC739"/>
<path transform="translate(978,658)" d="m0 0v3l-7 9-1-3 5-7z" fill="#FEC638"/>
<path transform="translate(1309,364)" d="m0 0 4 1 9 9-1 2-7-7z" fill="#030418"/>
<path transform="translate(1900,233)" d="m0 0 3 3-1 6-1-2h-2l-1-6z" fill="#FEC437"/>
<path transform="translate(1085,1199)" d="m0 0 6 1-4 3h-8l2-2z" fill="#FFCA3C"/>
<path transform="translate(252,1155)" d="m0 0 7 5v5l-7-6z" fill="#FEC639"/>
<path transform="translate(626,851)" d="m0 0 6 1 1 5-5-2z" fill="#FEC639"/>
</svg>
